<svg xmlns="http://www.w3.org/2000/svg" width="89" height="89" viewBox="0 0 89 89">
  <g id="Grupo_1100505" data-name="Grupo 1100505" transform="translate(-334.813 -2753)">
    <g id="Grupo_1098742" data-name="Grupo 1098742" transform="translate(334.813 2753)">
      <g id="Rect치ngulo_400898" data-name="Rect치ngulo 400898" fill="#1d3fbb" stroke="#fff" stroke-width="3" opacity="0.859">
        <rect width="89" height="89" rx="44.5" stroke="none"/>
        <rect x="1.5" y="1.5" width="86" height="86" rx="43" fill="none"/>
      </g>
      <rect id="Rect치ngulo_400907" data-name="Rect치ngulo 400907" width="89" height="89" rx="44.5" transform="translate(0)" fill="#1d3fbb"/>
    </g>
    <g id="azucar" transform="translate(349.771 2764.593)">
      <g id="Grupo_1100445" data-name="Grupo 1100445" transform="translate(20.41 14.424)">
        <path id="Trazado_875961" data-name="Trazado 875961" d="M110.093,82.886H86.952a4.207,4.207,0,0,1-4.207-4.207V48.142a6.312,6.312,0,0,1,1.08-3.531L87.7,38.872h21.649l3.874,5.739a6.312,6.312,0,0,1,1.08,3.531V78.678A4.208,4.208,0,0,1,110.093,82.886Z" transform="translate(-82.745 -38.872)" fill="#5e9cf7"/>
      </g>
      <g id="Grupo_1100446" data-name="Grupo 1100446" transform="translate(21.165 14.425)">
        <path id="Trazado_875962" data-name="Trazado 875962" d="M116.053,44.612l-3.874-5.739h-.342L115,43.56a6.311,6.311,0,0,1,1.08,3.531V77.627a4.207,4.207,0,0,1-4.207,4.207H88.733a4.185,4.185,0,0,1-2.4-.755,4.2,4.2,0,0,0,3.453,1.807h23.141a4.207,4.207,0,0,0,4.207-4.207V48.143A6.308,6.308,0,0,0,116.053,44.612Z" transform="translate(-86.332 -38.873)" fill="#478cf7"/>
      </g>
      <g id="Grupo_1100447" data-name="Grupo 1100447" transform="translate(21.567 27.031)">
        <path id="Trazado_875963" data-name="Trazado 875963" d="M88.245,99.218V124.74a4.207,4.207,0,0,0,4.207,4.207h20.827a4.207,4.207,0,0,0,4.207-4.207V99.218a.421.421,0,0,0-.421-.421h-28.4a.421.421,0,0,0-.421.421Z" transform="translate(-88.245 -98.797)" fill="#f1f2f2"/>
      </g>
      <g id="Grupo_1100448" data-name="Grupo 1100448" transform="translate(22.409 27.872)">
        <path id="Trazado_875964" data-name="Trazado 875964" d="M105.826,103.638h-.117a.421.421,0,1,1,0-.841h.117a.421.421,0,0,1,0,.841Zm-1.8,0H92.666a.421.421,0,0,1,0-.841h11.36a.421.421,0,1,1,0,.841Z" transform="translate(-92.245 -102.797)" fill="#fff"/>
      </g>
      <g id="Grupo_1100449" data-name="Grupo 1100449" transform="translate(21.942 27.031)">
        <path id="Trazado_875965" data-name="Trazado 875965" d="M118.472,98.8h-1.683v23.839a4.207,4.207,0,0,1-4.207,4.207H91.755a4.186,4.186,0,0,1-1.729-.375,4.205,4.205,0,0,0,3.833,2.478h20.827a4.207,4.207,0,0,0,4.207-4.207V99.218A.421.421,0,0,0,118.472,98.8Z" transform="translate(-90.026 -98.797)" fill="#e6e7e8"/>
      </g>
      <g id="Grupo_1100450" data-name="Grupo 1100450" transform="translate(22.322 27.031)">
        <path id="Trazado_875966" data-name="Trazado 875966" d="M119.9,98.8h-.631v24.891a4.207,4.207,0,0,1-4.207,4.207H94.234a4.185,4.185,0,0,1-2.4-.755,4.2,4.2,0,0,0,3.453,1.807h20.827a4.207,4.207,0,0,0,4.207-4.207V99.218A.421.421,0,0,0,119.9,98.8Z" transform="translate(-91.833 -98.797)" fill="#d1d3d4"/>
      </g>
      <g id="Grupo_1100451" data-name="Grupo 1100451" transform="translate(23.668 7.911)">
        <path id="Trazado_875967" data-name="Trazado 875967" d="M122.22,7.911H99.284a1.052,1.052,0,0,0-1.052,1.052v4.41a1.052,1.052,0,0,0,1.052,1.052H122.22a1.052,1.052,0,0,0,1.052-1.052V8.963a1.052,1.052,0,0,0-1.052-1.052Z" transform="translate(-98.232 -7.911)" fill="#939598"/>
      </g>
      <g id="Grupo_1100452" data-name="Grupo 1100452" transform="translate(23.668 7.911)">
        <path id="Trazado_875968" data-name="Trazado 875968" d="M122.22,7.911v4.41a1.052,1.052,0,0,1-1.052,1.052H98.232a1.052,1.052,0,0,0,1.052,1.052H122.22a1.052,1.052,0,0,0,1.052-1.052V8.963a1.052,1.052,0,0,0-1.052-1.052Z" transform="translate(-98.232 -7.911)" fill="#808285"/>
      </g>
      <g id="Grupo_1100469" data-name="Grupo 1100469" transform="translate(23.977 28.588)">
        <g id="Grupo_1100453" data-name="Grupo 1100453" transform="translate(18.793 0)">
          <circle id="Elipse_11578" data-name="Elipse 11578" cx="0.579" cy="0.579" r="0.579" fill="#fff"/>
        </g>
        <g id="Grupo_1100454" data-name="Grupo 1100454" transform="translate(22.107 3.944)">
          <circle id="Elipse_11579" data-name="Elipse 11579" cx="0.579" cy="0.579" r="0.579" fill="#fff"/>
        </g>
        <g id="Grupo_1100455" data-name="Grupo 1100455" transform="translate(9.296 12.484)">
          <circle id="Elipse_11580" data-name="Elipse 11580" cx="0.579" cy="0.579" r="0.579" fill="#fff"/>
        </g>
        <g id="Grupo_1100456" data-name="Grupo 1100456" transform="translate(0.811 12.939)">
          <circle id="Elipse_11581" data-name="Elipse 11581" cx="0.579" cy="0.579" r="0.579" fill="#fff"/>
        </g>
        <g id="Grupo_1100457" data-name="Grupo 1100457" transform="translate(20.95 12.361)">
          <circle id="Elipse_11582" data-name="Elipse 11582" cx="0.579" cy="0.579" r="0.579" fill="#fff"/>
        </g>
        <g id="Grupo_1100458" data-name="Grupo 1100458" transform="translate(15.69 14.684)">
          <circle id="Elipse_11583" data-name="Elipse 11583" cx="0.579" cy="0.579" r="0.579" fill="#fff"/>
        </g>
        <g id="Grupo_1100459" data-name="Grupo 1100459" transform="translate(1.968 20.999)">
          <circle id="Elipse_11584" data-name="Elipse 11584" cx="0.579" cy="0.579" r="0.579" fill="#fff"/>
        </g>
        <g id="Grupo_1100460" data-name="Grupo 1100460" transform="translate(11.064 19.842)">
          <circle id="Elipse_11585" data-name="Elipse 11585" cx="0.579" cy="0.579" r="0.579" fill="#fff"/>
        </g>
        <g id="Grupo_1100461" data-name="Grupo 1100461" transform="translate(7.178 23.056)">
          <circle id="Elipse_11586" data-name="Elipse 11586" cx="0.579" cy="0.579" r="0.579" fill="#fff"/>
        </g>
        <g id="Grupo_1100462" data-name="Grupo 1100462" transform="translate(6.02 17.419)">
          <circle id="Elipse_11587" data-name="Elipse 11587" cx="0.579" cy="0.579" r="0.579" fill="#fff"/>
        </g>
        <g id="Grupo_1100463" data-name="Grupo 1100463" transform="translate(17.093 23.056)">
          <circle id="Elipse_11588" data-name="Elipse 11588" cx="0.579" cy="0.579" r="0.579" fill="#fff"/>
        </g>
        <g id="Grupo_1100464" data-name="Grupo 1100464" transform="translate(22.107 18.902)">
          <circle id="Elipse_11589" data-name="Elipse 11589" cx="0.579" cy="0.579" r="0.579" fill="#fff"/>
        </g>
        <g id="Grupo_1100465" data-name="Grupo 1100465" transform="translate(4.482 5.409)">
          <circle id="Elipse_11590" data-name="Elipse 11590" cx="0.579" cy="0.579" r="0.579" fill="#fff"/>
        </g>
        <g id="Grupo_1100466" data-name="Grupo 1100466" transform="translate(16.094 5.353)">
          <circle id="Elipse_11591" data-name="Elipse 11591" cx="0.579" cy="0.579" r="0.579" fill="#fff"/>
        </g>
        <g id="Grupo_1100467" data-name="Grupo 1100467" transform="translate(0 3.434)">
          <circle id="Elipse_11592" data-name="Elipse 11592" cx="0.579" cy="0.579" r="0.579" fill="#fff"/>
        </g>
        <g id="Grupo_1100468" data-name="Grupo 1100468" transform="translate(7.756 2.066)">
          <circle id="Elipse_11593" data-name="Elipse 11593" cx="0.579" cy="0.579" r="0.579" fill="#fff"/>
        </g>
      </g>
      <g id="Grupo_1100483" data-name="Grupo 1100483" transform="translate(3.803 26.933)">
        <g id="Grupo_1100470" data-name="Grupo 1100470" transform="translate(0 9.171)">
          <path id="Trazado_875969" data-name="Trazado 875969" d="M54.021,141.921H4.225a.42.42,0,0,0-.421.451c.325,3.839,4.776,6.88,10.219,6.88,4.6,0,8.488-2.17,9.781-5.158l30.088,1.9a2.037,2.037,0,1,0,.128-4.071Z" transform="translate(-3.803 -141.921)" fill="#939598"/>
        </g>
        <g id="Grupo_1100471" data-name="Grupo 1100471" transform="translate(1.395 9.341)">
          <path id="Trazado_875970" data-name="Trazado 875970" d="M60.07,142.732a2.037,2.037,0,0,1-2,2.848l-29.394-1.855a1.036,1.036,0,0,0-.971.514c-1.512,2.7-5.2,4.6-9.5,4.6a12.217,12.217,0,0,1-7.774-2.563c1.78,2.163,5.066,3.615,8.826,3.615,4.6,0,8.488-2.17,9.781-5.158l30.088,1.9a2.037,2.037,0,0,0,.943-3.9Z" transform="translate(-10.432 -142.732)" fill="#808285"/>
        </g>
        <g id="Grupo_1100482" data-name="Grupo 1100482" transform="translate(1.814 0)">
          <g id="Grupo_1100472" data-name="Grupo 1100472">
            <path id="Trazado_875971" data-name="Trazado 875971" d="M12.428,107.5l7.62-8.807a1.052,1.052,0,0,1,1.591,0l7.62,8.807Z" transform="translate(-12.428 -98.329)" fill="#e6e7e8"/>
          </g>
          <g id="Grupo_1100473" data-name="Grupo 1100473" transform="translate(0 0.018)">
            <path id="Trazado_875972" data-name="Trazado 875972" d="M21.638,98.76a1.04,1.04,0,0,0-.623-.346l5.685,6.571a1.052,1.052,0,0,1-.8,1.74H13.156l-.728.841h16.83Z" transform="translate(-12.428 -98.414)" fill="#d1d3d4"/>
          </g>
          <g id="Grupo_1100481" data-name="Grupo 1100481" transform="translate(3.074 1.039)">
            <g id="Grupo_1100474" data-name="Grupo 1100474" transform="translate(4.417)">
              <circle id="Elipse_11594" data-name="Elipse 11594" cx="0.579" cy="0.579" r="0.579" fill="#fff"/>
            </g>
            <g id="Grupo_1100475" data-name="Grupo 1100475" transform="translate(6.644 1.92)">
              <circle id="Elipse_11595" data-name="Elipse 11595" cx="0.579" cy="0.579" r="0.579" fill="#fff"/>
            </g>
            <g id="Grupo_1100476" data-name="Grupo 1100476" transform="translate(7.591 4.43)">
              <circle id="Elipse_11596" data-name="Elipse 11596" cx="0.579" cy="0.579" r="0.579" fill="#fff"/>
            </g>
            <g id="Grupo_1100477" data-name="Grupo 1100477" transform="translate(3.977 5.184)">
              <circle id="Elipse_11597" data-name="Elipse 11597" cx="0.579" cy="0.579" r="0.579" fill="#fff"/>
            </g>
            <g id="Grupo_1100478" data-name="Grupo 1100478" transform="translate(0 5.447)">
              <circle id="Elipse_11598" data-name="Elipse 11598" cx="0.579" cy="0.579" r="0.579" fill="#fff"/>
            </g>
            <g id="Grupo_1100479" data-name="Grupo 1100479" transform="translate(4.137 2.498)">
              <circle id="Elipse_11599" data-name="Elipse 11599" cx="0.579" cy="0.579" r="0.579" fill="#fff"/>
            </g>
            <g id="Grupo_1100480" data-name="Grupo 1100480" transform="translate(1.736 3.392)">
              <circle id="Elipse_11600" data-name="Elipse 11600" cx="0.579" cy="0.579" r="0.579" fill="#fff"/>
            </g>
          </g>
        </g>
      </g>
      <g id="Grupo_1100504" data-name="Grupo 1100504" transform="translate(3.974 46.76)">
        <g id="Grupo_1100493" data-name="Grupo 1100493" transform="translate(6.732)">
          <g id="Grupo_1100484" data-name="Grupo 1100484">
            <path id="Trazado_875973" data-name="Trazado 875973" d="M44.295,201.311H37.666a1.052,1.052,0,0,1-1.052-1.052V193.63a1.052,1.052,0,0,1,1.052-1.052h6.629a1.052,1.052,0,0,1,1.052,1.052v6.629A1.052,1.052,0,0,1,44.295,201.311Z" transform="translate(-36.614 -192.578)" fill="#f1f2f2"/>
          </g>
          <g id="Grupo_1100485" data-name="Grupo 1100485" transform="translate(5.577)">
            <path id="Trazado_875974" data-name="Trazado 875974" d="M65.229,192.578h-2.1a1.052,1.052,0,0,1,1.052,1.052v6.629a1.052,1.052,0,0,1-1.052,1.052h2.1a1.052,1.052,0,0,0,1.052-1.052V193.63A1.052,1.052,0,0,0,65.229,192.578Z" transform="translate(-63.125 -192.578)" fill="#e6e7e8"/>
          </g>
          <g id="Grupo_1100492" data-name="Grupo 1100492" transform="translate(0.554 1.039)">
            <g id="Grupo_1100486" data-name="Grupo 1100486" transform="translate(0.638)">
              <circle id="Elipse_11601" data-name="Elipse 11601" cx="0.579" cy="0.579" r="0.579" fill="#fff"/>
            </g>
            <g id="Grupo_1100487" data-name="Grupo 1100487" transform="translate(3.724)">
              <circle id="Elipse_11602" data-name="Elipse 11602" cx="0.579" cy="0.579" r="0.579" fill="#fff"/>
            </g>
            <g id="Grupo_1100488" data-name="Grupo 1100488" transform="translate(3.234 5.552)">
              <circle id="Elipse_11603" data-name="Elipse 11603" cx="0.579" cy="0.579" r="0.579" fill="#fff"/>
            </g>
            <g id="Grupo_1100489" data-name="Grupo 1100489" transform="translate(0 4.868)">
              <circle id="Elipse_11604" data-name="Elipse 11604" cx="0.579" cy="0.579" r="0.579" fill="#fff"/>
            </g>
            <g id="Grupo_1100490" data-name="Grupo 1100490" transform="translate(4.445 3.182)">
              <circle id="Elipse_11605" data-name="Elipse 11605" cx="0.579" cy="0.579" r="0.579" fill="#fff"/>
            </g>
            <g id="Grupo_1100491" data-name="Grupo 1100491" transform="translate(1.736 2.603)">
              <circle id="Elipse_11606" data-name="Elipse 11606" cx="0.579" cy="0.579" r="0.579" fill="#fff"/>
            </g>
          </g>
        </g>
        <g id="Grupo_1100503" data-name="Grupo 1100503" transform="translate(0 2.945)">
          <g id="Grupo_1100494" data-name="Grupo 1100494">
            <path id="Trazado_875975" data-name="Trazado 875975" d="M12.295,215.311H5.666a1.052,1.052,0,0,1-1.052-1.052V207.63a1.052,1.052,0,0,1,1.052-1.052h6.629a1.052,1.052,0,0,1,1.052,1.052v6.629A1.052,1.052,0,0,1,12.295,215.311Z" transform="translate(-4.614 -206.578)" fill="#f1f2f2"/>
          </g>
          <g id="Grupo_1100495" data-name="Grupo 1100495" transform="translate(5.577)">
            <path id="Trazado_875976" data-name="Trazado 875976" d="M33.229,206.578h-2.1a1.052,1.052,0,0,1,1.052,1.052v6.629a1.052,1.052,0,0,1-1.052,1.052h2.1a1.052,1.052,0,0,0,1.052-1.052V207.63A1.052,1.052,0,0,0,33.229,206.578Z" transform="translate(-31.125 -206.578)" fill="#e6e7e8"/>
          </g>
          <g id="Grupo_1100502" data-name="Grupo 1100502" transform="translate(0.974 1.039)">
            <g id="Grupo_1100496" data-name="Grupo 1100496" transform="translate(0.218)">
              <circle id="Elipse_11607" data-name="Elipse 11607" cx="0.579" cy="0.579" r="0.579" fill="#fff"/>
            </g>
            <g id="Grupo_1100497" data-name="Grupo 1100497" transform="translate(3.303)">
              <circle id="Elipse_11608" data-name="Elipse 11608" cx="0.579" cy="0.579" r="0.579" fill="#fff"/>
            </g>
            <g id="Grupo_1100498" data-name="Grupo 1100498" transform="translate(2.814 5.552)">
              <circle id="Elipse_11609" data-name="Elipse 11609" cx="0.579" cy="0.579" r="0.579" fill="#fff"/>
            </g>
            <g id="Grupo_1100499" data-name="Grupo 1100499" transform="translate(0 4.868)">
              <circle id="Elipse_11610" data-name="Elipse 11610" cx="0.579" cy="0.579" r="0.579" fill="#fff"/>
            </g>
            <g id="Grupo_1100500" data-name="Grupo 1100500" transform="translate(4.024 3.182)">
              <circle id="Elipse_11611" data-name="Elipse 11611" cx="0.579" cy="0.579" r="0.579" fill="#fff"/>
            </g>
            <g id="Grupo_1100501" data-name="Grupo 1100501" transform="translate(1.315 2.603)">
              <circle id="Elipse_11612" data-name="Elipse 11612" cx="0.579" cy="0.579" r="0.579" fill="#fff"/>
            </g>
          </g>
        </g>
      </g>
    </g>
  </g>
</svg>
