<svg xmlns="http://www.w3.org/2000/svg" width="89" height="89" viewBox="0 0 89 89">
  <g id="Grupo_1100507" data-name="Grupo 1100507" transform="translate(-754.813 -2753)">
    <g id="Grupo_1098742" data-name="Grupo 1098742" transform="translate(754.813 2753)">
      <g id="Rect치ngulo_400898" data-name="Rect치ngulo 400898" fill="#1d3fbb" stroke="#fff" stroke-width="3" opacity="0.859">
        <rect width="89" height="89" rx="44.5" stroke="none"/>
        <rect x="1.5" y="1.5" width="86" height="86" rx="43" fill="none"/>
      </g>
      <rect id="Rect치ngulo_400907" data-name="Rect치ngulo 400907" width="89" height="89" rx="44.5" transform="translate(0)" fill="#1d3fbb"/>
    </g>
    <g id="cubos-de-azucar" transform="translate(754.704 2770.783)">
      <path id="Trazado_875977" data-name="Trazado 875977" d="M256.462,11.842l6.151,2.694L269.27,9.9l1.464-5.462a1.369,1.369,0,0,0-.968-1.677L259.636.047a1.369,1.369,0,0,0-1.677.968L256,8.325S256.459,11.83,256.462,11.842Z" transform="translate(-211.198 0)" fill="#f4fbff"/>
      <path id="Trazado_875978" data-name="Trazado 875978" d="M296.342,19.065l-3.261-.874a1.366,1.366,0,0,1-.046.413l-.634,2.368a7.733,7.733,0,0,1-3.6,4.7l-3.144,1.815,3.536,3.357,6.657-4.636,1.464-5.462A1.369,1.369,0,0,0,296.342,19.065Z" transform="translate(-237.775 -16.304)" fill="#e4f6ff"/>
      <path id="Trazado_875979" data-name="Trazado 875979" d="M115.049,9.9l6.657,4.636,7.377-3.357-.009-.035L126.36,1.016a1.369,1.369,0,0,0-1.677-.968L114.553,2.762a1.369,1.369,0,0,0-.968,1.677Z" transform="translate(-83.516 -0.001)" fill="#f4fbff"/>
      <path id="Trazado_875980" data-name="Trazado 875980" d="M162.7,11.144,159.986,1.015a1.369,1.369,0,0,0-1.677-.968l-2.132.571,1.077,4.018a3.329,3.329,0,0,1-3.381,4.406h-1.447a1.369,1.369,0,0,0-1.369,1.369v.864l4.275,3.261,7.377-3.357-.009-.035Z" transform="translate(-117.143 0)" fill="#e4f6ff"/>
      <path id="Trazado_875981" data-name="Trazado 875981" d="M87.438,237.963l-22.067-2.734L43.3,237.963a22.074,22.074,0,0,0,13.611,20.389.889.889,0,0,1,.522,1.045l-.987,3.788a.606.606,0,0,0,.586.759H73.7a.606.606,0,0,0,.587-.759L73.3,259.4a.889.889,0,0,1,.522-1.045A22.074,22.074,0,0,0,87.438,237.963Z" transform="translate(-20.569 -210.824)" fill="#75cef9"/>
      <g id="Grupo_1100506" data-name="Grupo 1100506" transform="translate(21.125 7.921)">
        <path id="Trazado_875982" data-name="Trazado 875982" d="M28.474,87.99,32.132,90.1h8.813L44.67,83.65a1.369,1.369,0,0,0-.5-1.871l-9.082-5.243a1.369,1.369,0,0,0-1.871.5l-5.243,9.082a1.369,1.369,0,0,0,.5,1.871Z" transform="translate(-27.789 -76.352)" fill="#f4fbff"/>
        <path id="Trazado_875983" data-name="Trazado 875983" d="M205.489,118.247v-9.122a1.369,1.369,0,0,0-1.369-1.369H193.633a1.369,1.369,0,0,0-1.369,1.369v9.122Z" transform="translate(-175.2 -104.498)" fill="#f4fbff"/>
        <path id="Trazado_875984" data-name="Trazado 875984" d="M323.646,90.1h8.813l3.658-2.112a1.37,1.37,0,0,0,.5-1.871l-5.243-9.082a1.369,1.369,0,0,0-1.871-.5l-9.082,5.243a1.369,1.369,0,0,0-.5,1.871Z" transform="translate(-289.448 -76.353)" fill="#f4fbff"/>
      </g>
      <path id="Trazado_875985" data-name="Trazado 875985" d="M49.719,81.78l-9.082-5.243a1.364,1.364,0,0,0-.869-.171l5.675,3.277a1.369,1.369,0,0,1,.5,1.871l-2.028,3.513a5.877,5.877,0,0,1-5.09,2.938H33.982l.043.026L37.683,90.1l4.51,1.884L46.5,90.1l3.725-6.451A1.369,1.369,0,0,0,49.719,81.78Z" transform="translate(-12.214 -68.432)" fill="#e4f6ff"/>
      <path id="Trazado_875986" data-name="Trazado 875986" d="M204.119,107.755h-2.906V113.2a2.91,2.91,0,0,1-2.91,2.91h-6.04v2.138l6.613,2.734,6.613-2.734v-9.122A1.37,1.37,0,0,0,204.119,107.755Z" transform="translate(-154.074 -96.576)" fill="#e4f6ff"/>
      <path id="Trazado_875987" data-name="Trazado 875987" d="M359.72,86.12l-5.243-9.082a1.369,1.369,0,0,0-1.871-.5l-1.095.632,3.934,6.813a1.369,1.369,0,0,1-.5,1.871l-1.072.619a11.144,11.144,0,0,1-5.572,1.493h-2.786l1.234,2.138,4.5,2.222,4.314-2.222,3.658-2.112A1.37,1.37,0,0,0,359.72,86.12Z" transform="translate(-291.425 -68.432)" fill="#e4f6ff"/>
      <path id="Trazado_875988" data-name="Trazado 875988" d="M219.766,454.714h-7.674a.8.8,0,1,1,0-1.6h7.674a.8.8,0,1,1,0,1.6Z" transform="translate(-171.126 -406.101)" fill="#6bbef6"/>
      <path id="Trazado_875989" data-name="Trazado 875989" d="M67.915,208.875H21.689a1.335,1.335,0,0,0-1.335,1.335v2.8a1.335,1.335,0,0,0,1.335,1.335H67.915a1.335,1.335,0,0,0,1.335-1.335v-2.8A1.335,1.335,0,0,0,67.915,208.875Z" transform="translate(0 -187.204)" fill="#75cef9"/>
      <path id="Trazado_875990" data-name="Trazado 875990" d="M187.224,267.351a22.074,22.074,0,0,0,13.611-20.389L198.7,245.27l-2.243,1.692a22.08,22.08,0,0,1-12.223,17.668,2.715,2.715,0,0,0-1.419,3.121,2.439,2.439,0,0,1-2.36,3.054H170.206l-.359,1.379a.606.606,0,0,0,.586.759H187.1a.606.606,0,0,0,.587-.759L186.7,268.4A.889.889,0,0,1,187.224,267.351Z" transform="translate(-133.965 -219.823)" fill="#6bbef6"/>
      <path id="Trazado_875991" data-name="Trazado 875991" d="M294.838,454a.8.8,0,0,0-.671-.791,2.724,2.724,0,0,0,.08.907,2.456,2.456,0,0,1,.08.631A.8.8,0,0,0,294.838,454Z" transform="translate(-245.397 -406.193)" fill="#5ea5ec"/>
      <path id="Trazado_875992" data-name="Trazado 875992" d="M67.915,208.875h-2.94v.074a3.257,3.257,0,0,1-3.257,3.257H20.354v.8a1.335,1.335,0,0,0,1.335,1.335H67.915a1.335,1.335,0,0,0,1.335-1.335v-2.8a1.335,1.335,0,0,0-1.335-1.335Z" transform="translate(0 -187.204)" fill="#6bbef6"/>
    </g>
  </g>
</svg>
