<svg xmlns="http://www.w3.org/2000/svg" width="85" height="85" viewBox="0 0 85 85">
  <g id="Grupo_1100441" data-name="Grupo 1100441" transform="translate(-179.813 -864)">
    <circle id="Elipse_11552" data-name="Elipse 11552" cx="42.5" cy="42.5" r="42.5" transform="translate(179.813 864)" fill="#0e1f5d"/>
    <g id="pastel-de-fresa" transform="translate(197.813 879)">
      <circle id="Elipse_11558" data-name="Elipse 11558" cx="23" cy="23" r="23" transform="translate(1.172 5.794)" fill="#722419"/>
      <path id="Trazado_875926" data-name="Trazado 875926" d="M57.1,406a23.265,23.265,0,0,0,3.4,3.777H91.259A23.261,23.261,0,0,0,94.66,406Z" transform="translate(-51.708 -364.043)" fill="#ffaf10"/>
      <path id="Trazado_875927" data-name="Trazado 875927" d="M63.036,406H57.1a23.265,23.265,0,0,0,3.4,3.777h5.937A23.261,23.261,0,0,1,63.036,406Z" transform="translate(-51.708 -364.043)" fill="#e09e46"/>
      <path id="Trazado_875928" data-name="Trazado 875928" d="M352.331,119.737a2.916,2.916,0,0,1,2.47,1.357.094.094,0,0,0,.159,0,2.916,2.916,0,0,1,2.47-1.357l.068,0c0-.079.007-.158.007-.237,0-2.243-1.434-4.067-3.2-4.067s-3.2,1.824-3.2,4.067c0,.164.01.327.025.489A2.924,2.924,0,0,1,352.331,119.737Z" transform="translate(-317.961 -100.913)" fill="#ea2a3d"/>
      <g id="Grupo_1100433" data-name="Grupo 1100433" transform="translate(27.064 14.522)">
        <circle id="Elipse_11559" data-name="Elipse 11559" cx="0.436" cy="0.436" r="0.436" transform="translate(7.919 1.469)" fill="#b7092b"/>
        <circle id="Elipse_11560" data-name="Elipse 11560" cx="0.436" cy="0.436" r="0.436" transform="translate(8.791 3.11)" fill="#b7092b"/>
        <circle id="Elipse_11561" data-name="Elipse 11561" cx="0.436" cy="0.436" r="0.436" transform="translate(7.145 3.575)" fill="#b7092b"/>
        <circle id="Elipse_11562" data-name="Elipse 11562" cx="0.436" cy="0.436" r="0.436" transform="translate(10.766 3.517)" fill="#b7092b"/>
        <circle id="Elipse_11563" data-name="Elipse 11563" cx="0.436" cy="0.436" r="0.436" transform="translate(9.633 1.469)" fill="#b7092b"/>
        <path id="Trazado_875929" data-name="Trazado 875929" d="M288.841,119.737a2.916,2.916,0,0,1,2.47,1.357.094.094,0,0,0,.159,0,2.919,2.919,0,0,1,1.54-1.206c.01-.128.016-.257.016-.387,0-2.243-1.434-4.067-3.2-4.067s-3.2,1.824-3.2,4.067a5.08,5.08,0,0,0,.123,1.108A2.911,2.911,0,0,1,288.841,119.737Z" transform="translate(-286.635 -115.435)" fill="#b7092b"/>
      </g>
      <g id="Grupo_1100434" data-name="Grupo 1100434" transform="translate(28.122 15.991)">
        <path id="Trazado_875930" data-name="Trazado 875930" d="M306.9,131.431a.436.436,0,1,1-.435-.436A.436.436,0,0,1,306.9,131.431Z" transform="translate(-305.253 -130.995)" fill="#910023"/>
        <circle id="Elipse_11564" data-name="Elipse 11564" cx="0.436" cy="0.436" r="0.436" transform="translate(1.645 1.641)" fill="#910023"/>
        <path id="Trazado_875931" data-name="Trazado 875931" d="M298.7,153.737a.436.436,0,1,1-.436-.436A.436.436,0,0,1,298.7,153.737Z" transform="translate(-297.833 -151.195)" fill="#910023"/>
        <circle id="Elipse_11565" data-name="Elipse 11565" cx="0.436" cy="0.436" r="0.436" transform="translate(3.62 2.048)" fill="#910023"/>
        <circle id="Elipse_11566" data-name="Elipse 11566" cx="0.436" cy="0.436" r="0.436" transform="translate(2.487 0)" fill="#910023"/>
      </g>
      <path id="Trazado_875932" data-name="Trazado 875932" d="M222.724,121.093a.095.095,0,0,0,.159,0,2.926,2.926,0,0,1,4.939,0,.095.095,0,0,0,.159,0,2.959,2.959,0,0,1,.458-.556,5.1,5.1,0,0,0,.108-1.036c0-2.243-1.434-4.067-3.2-4.067s-3.2,1.824-3.2,4.067a5.091,5.091,0,0,0,.108,1.036A2.956,2.956,0,0,1,222.724,121.093Z" transform="translate(-201.181 -100.912)" fill="#ea2a3d"/>
      <g id="Grupo_1100435" data-name="Grupo 1100435" transform="translate(14.888 14.522)">
        <circle id="Elipse_11567" data-name="Elipse 11567" cx="0.436" cy="0.436" r="0.436" transform="translate(7.919 1.469)" fill="#b7092b"/>
        <circle id="Elipse_11568" data-name="Elipse 11568" cx="0.436" cy="0.436" r="0.436" transform="translate(8.791 3.11)" fill="#b7092b"/>
        <path id="Trazado_875933" data-name="Trazado 875933" d="M234.224,153.737a.436.436,0,1,1-.436-.436A.436.436,0,0,1,234.224,153.737Z" transform="translate(-226.207 -149.726)" fill="#b7092b"/>
        <path id="Trazado_875934" data-name="Trazado 875934" d="M272.57,153.122a.436.436,0,1,1-.435-.436A.436.436,0,0,1,272.57,153.122Z" transform="translate(-260.933 -149.169)" fill="#b7092b"/>
        <path id="Trazado_875935" data-name="Trazado 875935" d="M260.574,131.431a.436.436,0,1,1-.436-.436A.436.436,0,0,1,260.574,131.431Z" transform="translate(-250.069 -129.526)" fill="#b7092b"/>
        <path id="Trazado_875936" data-name="Trazado 875936" d="M159.237,121.094a.095.095,0,0,0,.159,0,2.925,2.925,0,0,1,4.553-.484,5.079,5.079,0,0,0,.123-1.108c0-2.243-1.434-4.067-3.2-4.067s-3.2,1.824-3.2,4.067c0,.13.007.259.016.387A2.92,2.92,0,0,1,159.237,121.094Z" transform="translate(-157.681 -115.435)" fill="#b7092b"/>
      </g>
      <g id="Grupo_1100436" data-name="Grupo 1100436" transform="translate(15.945 15.991)">
        <circle id="Elipse_11569" data-name="Elipse 11569" cx="0.436" cy="0.436" r="0.436" transform="translate(0.774 0)" fill="#910023"/>
        <circle id="Elipse_11570" data-name="Elipse 11570" cx="0.436" cy="0.436" r="0.436" transform="translate(1.646 1.641)" fill="#910023"/>
        <circle id="Elipse_11571" data-name="Elipse 11571" cx="0.436" cy="0.436" r="0.436" transform="translate(0 2.106)" fill="#910023"/>
        <circle id="Elipse_11572" data-name="Elipse 11572" cx="0.436" cy="0.436" r="0.436" transform="translate(3.621 2.048)" fill="#910023"/>
        <path id="Trazado_875937" data-name="Trazado 875937" d="M196.1,131.431a.436.436,0,1,1-.436-.436A.436.436,0,0,1,196.1,131.431Z" transform="translate(-192.737 -130.995)" fill="#910023"/>
      </g>
      <path id="Trazado_875938" data-name="Trazado 875938" d="M93.278,119.737a2.916,2.916,0,0,1,2.47,1.357.094.094,0,0,0,.159,0,2.926,2.926,0,0,1,3.661-1.1c.015-.162.025-.324.025-.489,0-2.243-1.434-4.067-3.2-4.067s-3.2,1.824-3.2,4.067c0,.08,0,.158.007.237Z" transform="translate(-84.403 -100.913)" fill="#ea2a3d"/>
      <g id="Grupo_1100437" data-name="Grupo 1100437" transform="translate(9.857 15.991)">
        <circle id="Elipse_11573" data-name="Elipse 11573" cx="0.436" cy="0.436" r="0.436" transform="translate(0.774)" fill="#b7092b"/>
        <circle id="Elipse_11574" data-name="Elipse 11574" cx="0.436" cy="0.436" r="0.436" transform="translate(1.646 1.641)" fill="#b7092b"/>
        <circle id="Elipse_11575" data-name="Elipse 11575" cx="0.436" cy="0.436" r="0.436" transform="translate(0 2.106)" fill="#b7092b"/>
        <circle id="Elipse_11576" data-name="Elipse 11576" cx="0.436" cy="0.436" r="0.436" transform="translate(3.621 2.048)" fill="#b7092b"/>
        <circle id="Elipse_11577" data-name="Elipse 11577" cx="0.436" cy="0.436" r="0.436" transform="translate(2.488)" fill="#b7092b"/>
      </g>
      <path id="Trazado_875939" data-name="Trazado 875939" d="M98.434,164.107a3.021,3.021,0,0,0-5.369-2.707,3.02,3.02,0,0,0-5.1,0,3.02,3.02,0,0,0-5.1,0,3.02,3.02,0,0,0-5.1,0,3.02,3.02,0,0,0-5.1,0,3.02,3.02,0,0,0-5.1,0,3.021,3.021,0,0,0-5.369,2.707Z" transform="translate(-56.146 -141.27)" fill="#fff"/>
      <g id="Grupo_1100438" data-name="Grupo 1100438" transform="translate(5.854 18.73)">
        <path id="Trazado_875940" data-name="Trazado 875940" d="M64.092,164.107a3.017,3.017,0,0,1,1.874-3.956,3.021,3.021,0,0,0-3.764,3.956Z" transform="translate(-62 -160)" fill="#eef6ff"/>
        <path id="Trazado_875941" data-name="Trazado 875941" d="M118.092,164.107a3.017,3.017,0,0,1,1.874-3.956,3.021,3.021,0,0,0-3.764,3.956Z" transform="translate(-110.901 -160)" fill="#eef6ff"/>
        <path id="Trazado_875942" data-name="Trazado 875942" d="M172.092,164.107a3.017,3.017,0,0,1,1.874-3.956,3.021,3.021,0,0,0-3.764,3.956Z" transform="translate(-159.802 -160)" fill="#eef6ff"/>
        <path id="Trazado_875943" data-name="Trazado 875943" d="M226.092,164.107a3.017,3.017,0,0,1,1.874-3.956,3.021,3.021,0,0,0-3.764,3.956Z" transform="translate(-208.704 -160)" fill="#eef6ff"/>
        <path id="Trazado_875944" data-name="Trazado 875944" d="M280.092,164.107a3.017,3.017,0,0,1,1.874-3.956,3.021,3.021,0,0,0-3.764,3.956Z" transform="translate(-257.605 -160)" fill="#eef6ff"/>
        <path id="Trazado_875945" data-name="Trazado 875945" d="M334.092,164.107a3.017,3.017,0,0,1,1.874-3.956,3.021,3.021,0,0,0-3.764,3.956Z" transform="translate(-306.506 -160)" fill="#eef6ff"/>
        <path id="Trazado_875946" data-name="Trazado 875946" d="M388.092,164.107a3.017,3.017,0,0,1,1.874-3.956,3.021,3.021,0,0,0-3.764,3.956Z" transform="translate(-355.407 -160)" fill="#eef6ff"/>
      </g>
      <rect id="Rectángulo_401905" data-name="Rectángulo 401905" width="39.374" height="13.172" transform="translate(4.485 24.065)" fill="#ffc987"/>
      <rect id="Rectángulo_401906" data-name="Rectángulo 401906" width="2.88" height="13.172" transform="translate(4.485 24.065)" fill="#ff9852"/>
      <rect id="Rectángulo_401907" data-name="Rectángulo 401907" width="39.374" height="6.515" transform="translate(4.485 27.228)" fill="#fff"/>
      <rect id="Rectángulo_401908" data-name="Rectángulo 401908" width="2.88" height="6.515" transform="translate(4.485 27.228)" fill="#eef6ff"/>
      <g id="Grupo_1100439" data-name="Grupo 1100439" transform="translate(3.305 22.743)">
        <path id="Trazado_875947" data-name="Trazado 875947" d="M80.082,203.916H40.708a.708.708,0,0,1,0-1.416H80.082a.708.708,0,0,1,0,1.416Z" transform="translate(-39.528 -202.5)" fill="#fff"/>
        <path id="Trazado_875948" data-name="Trazado 875948" d="M76.561,356.794A1.178,1.178,0,0,0,75.554,355H36.18a1.178,1.178,0,0,0-1.007,1.794Z" transform="translate(-35 -340.601)" fill="#fff"/>
      </g>
      <path id="Trazado_875949" data-name="Trazado 875949" d="M38.95,356.794A1.178,1.178,0,0,1,39.957,355H36.18a1.178,1.178,0,0,0-1.007,1.794Z" transform="translate(-31.695 -317.858)" fill="#eef6ff"/>
      <path id="Trazado_875950" data-name="Trazado 875950" d="M341.589,67.514a.149.149,0,0,1-.141-.1,1.673,1.673,0,0,0-1.347-1.347.149.149,0,0,1,0-.282,1.673,1.673,0,0,0,1.347-1.347.149.149,0,0,1,.282,0,1.673,1.673,0,0,0,1.347,1.347.149.149,0,0,1,0,.282,1.673,1.673,0,0,0-1.347,1.347A.149.149,0,0,1,341.589,67.514Z" transform="translate(-307.897 -54.638)" fill="#fff"/>
      <path id="Trazado_875951" data-name="Trazado 875951" d="M132.937,69.682a.126.126,0,0,1-.119-.085,1.411,1.411,0,0,0-1.136-1.136.126.126,0,0,1,0-.238,1.411,1.411,0,0,0,1.136-1.136.126.126,0,0,1,.238,0,1.411,1.411,0,0,0,1.136,1.136.126.126,0,0,1,0,.238,1.411,1.411,0,0,0-1.136,1.136A.126.126,0,0,1,132.937,69.682Z" transform="translate(-119.171 -57.051)" fill="#ffd00d"/>
      <path id="Trazado_875952" data-name="Trazado 875952" d="M206.786,42.38a.206.206,0,0,1-.195-.14,2.305,2.305,0,0,0-1.857-1.857.206.206,0,0,1,0-.389,2.306,2.306,0,0,0,1.857-1.857.206.206,0,0,1,.389,0,2.305,2.305,0,0,0,1.856,1.857.206.206,0,0,1,0,.389,2.305,2.305,0,0,0-1.856,1.857A.206.206,0,0,1,206.786,42.38Z" transform="translate(-185.277 -30.788)" fill="#fff"/>
      <path id="Trazado_875953" data-name="Trazado 875953" d="M295.192,8.382a.205.205,0,0,1-.195-.14,2.306,2.306,0,0,0-1.857-1.857.206.206,0,0,1,0-.389A2.306,2.306,0,0,0,295,4.139a.206.206,0,0,1,.389,0A2.305,2.305,0,0,0,297.243,6a.206.206,0,0,1,0,.389,2.305,2.305,0,0,0-1.856,1.857A.206.206,0,0,1,295.192,8.382Z" transform="translate(-265.335)" fill="#ffd00d"/>
      <path id="Trazado_875954" data-name="Trazado 875954" d="M48.344,375.738a.474.474,0,0,1-.472.472H.472A.474.474,0,0,1,0,375.738v-2.266A.474.474,0,0,1,.472,373h47.4a.474.474,0,0,1,.472.472Z" transform="translate(0 -334.159)" fill="#a35826"/>
      <path id="Trazado_875955" data-name="Trazado 875955" d="M4.721,375.738v-2.266A.474.474,0,0,1,5.193,373H.472a.474.474,0,0,0-.472.472v2.266a.474.474,0,0,0,.472.472H5.193A.474.474,0,0,1,4.721,375.738Z" transform="translate(0 -334.159)" fill="#96461a"/>
      <g id="Grupo_1100440" data-name="Grupo 1100440" transform="translate(6.217 28.806)">
        <path id="Trazado_875956" data-name="Trazado 875956" d="M68.982,266.719a3.144,3.144,0,0,1,3.14,3.14.474.474,0,0,1-.474.474H66.316a.474.474,0,0,1-.474-.474A3.144,3.144,0,0,1,68.982,266.719Z" transform="translate(-65.842 -266.719)" fill="#ea2a3d"/>
        <path id="Trazado_875957" data-name="Trazado 875957" d="M147.628,270.332a3.144,3.144,0,0,1-3.14-3.14.474.474,0,0,1,.474-.474h5.332a.474.474,0,0,1,.474.474A3.144,3.144,0,0,1,147.628,270.332Z" transform="translate(-137.062 -266.718)" fill="#ea2a3d"/>
        <path id="Trazado_875958" data-name="Trazado 875958" d="M225.883,266.719a3.144,3.144,0,0,1,3.14,3.14.474.474,0,0,1-.474.474h-5.332a.474.474,0,0,1-.474-.474A3.144,3.144,0,0,1,225.883,266.719Z" transform="translate(-207.928 -266.719)" fill="#ea2a3d"/>
        <path id="Trazado_875959" data-name="Trazado 875959" d="M304.531,270.332a3.144,3.144,0,0,1-3.14-3.14.474.474,0,0,1,.474-.474H307.2a.474.474,0,0,1,.474.474A3.144,3.144,0,0,1,304.531,270.332Z" transform="translate(-279.15 -266.718)" fill="#ea2a3d"/>
        <path id="Trazado_875960" data-name="Trazado 875960" d="M382.785,266.719a3.144,3.144,0,0,1,3.14,3.14.474.474,0,0,1-.474.474h-5.332a.474.474,0,0,1-.474-.474A3.144,3.144,0,0,1,382.785,266.719Z" transform="translate(-350.015 -266.719)" fill="#ea2a3d"/>
      </g>
    </g>
  </g>
</svg>
