<svg xmlns="http://www.w3.org/2000/svg" xmlns:xlink="http://www.w3.org/1999/xlink" width="254" height="204" viewBox="0 0 254 204">
  <defs>
    <clipPath id="clip-path">
      <rect id="Rectángulo_401526" data-name="Rectángulo 401526" width="254" height="204" rx="12" transform="translate(200.051 1300)" fill="#e8ebf8"/>
    </clipPath>
    <clipPath id="clip-path-2">
      <rect id="Rectángulo_401525" data-name="Rectángulo 401525" width="128.176" height="317.681" fill="none"/>
    </clipPath>
  </defs>
  <g id="Grupo_1100168" data-name="Grupo 1100168" transform="translate(-200.051 -1300)">
    <rect id="Rectángulo_401431" data-name="Rectángulo 401431" width="254" height="185" rx="12" transform="translate(200.051 1319)" fill="#142c82"/>
    <g id="Enmascarar_grupo_1098693" data-name="Enmascarar grupo 1098693" clip-path="url(#clip-path)">
      <g id="Grupo_1099810" data-name="Grupo 1099810" transform="translate(263.051 1304.52)">
        <g id="Grupo_1099809" data-name="Grupo 1099809" clip-path="url(#clip-path-2)">
          <path id="Trazado_874078" data-name="Trazado 874078" d="M56.824,279.907c-.556,2.708-1.437,6.954-2.476,11.938-3.389,16.208-8.507,40.11-9.861,43.358-2.035,4.876-7.784,12.669-12.312,16.225l-.258.208c-4.561,3.456-13.533,2.625-13.948,1.52-.374-1,5.358-53.078,7.785-73.78.149-1.313.291-2.51.415-3.548A81.78,81.78,0,0,0,37.16,278.12c.2.034.4.059.615.091a181.171,181.171,0,0,0,19.049,1.7" transform="translate(-2.91 -44.715)" fill="#fee7d1"/>
          <path id="Trazado_874079" data-name="Trazado 874079" d="M125.293,352.746c-.831.83-3.871,1.379-6.065,1.379-1.662-.008-5.608-1.445-8.374-3.166a10.554,10.554,0,0,1-2.152-1.67c-2.227-2.343-13.8-21.824-16.707-28.728-2.076-4.959-5.375-16.749-8.291-28.736-.972-4-1.91-8.025-2.742-11.823a136.366,136.366,0,0,0,19.133-1.877c.208-.034.415-.067.614-.108a79.727,79.727,0,0,0,9.205-2.16c.366,1.711.789,3.747,1.279,6.048,4.777,22.656,14.722,70.208,14.1,70.84" transform="translate(-13.125 -44.72)" fill="#fee7d1"/>
          <path id="Trazado_874080" data-name="Trazado 874080" d="M58.334,279.907c-.556,2.708-1.437,6.954-2.476,11.938-4.669-3.68-13.367-8.748-28.595-12.469.149-1.313.291-2.51.415-3.548a81.78,81.78,0,0,0,10.991,2.292c.2.034.4.059.615.091a181.171,181.171,0,0,0,19.049,1.7" transform="translate(-4.42 -44.715)" fill="#f4d4ba"/>
          <path id="Trazado_874081" data-name="Trazado 874081" d="M111.195,281.906a53.772,53.772,0,0,0-27.49,9.92c-.972-4-1.911-8.025-2.742-11.823a136.353,136.353,0,0,0,19.132-1.877c.208-.034.416-.067.615-.108a79.727,79.727,0,0,0,9.205-2.16c.365,1.711.789,3.747,1.279,6.048" transform="translate(-13.125 -44.72)" fill="#f4d4ba"/>
          <path id="Trazado_874082" data-name="Trazado 874082" d="M120.164,177.789a29.934,29.934,0,0,0-12.985-7.461c-8.1-2.21-17.122,2.21-17.122,2.21l-2.867-.125c1.671-8.458,3.522-17.48,3.6-18.941.116-2.318-7.461-14.173-9.9-17.92v-.017c-.457-.706-.73-1.122-.73-1.122s-.3.15-.872.39a52.848,52.848,0,0,1-19.939,3.747,37.292,37.292,0,0,1-11.132-1.437c-.208-.059-.4-.125-.591-.191a15.2,15.2,0,0,1-4.078-2.028,6.674,6.674,0,0,0-.682-.482,5.442,5.442,0,0,0-.855,1.413c-2.376,4.528-8.815,18.418-8.815,18.418.69,3.1,2.484,12.719,2.484,14.887a26.42,26.42,0,0,1-.315,2.7C26.212,175.221,4.72,183.1,4.5,182.3c-.275-1.014,2.21-16.674,2.21-16.674s-.184-4.785,2.21-12.611,4.784-16.025,5.89-17.961,2.583-6.813,11.24-11.972c4.187-2.492,8.955-5,13.5-7.327.547-.291,1.1-.565,1.636-.839,1.72-.881,3.381-1.72,4.95-2.518,2.336-1.18,4.463-2.267,6.249-3.223.814,2.152,3.048,3.672,5.766,4.553.207.066.423.132.639.191a19.605,19.605,0,0,0,4.462.69c4.693.191,7.825,0,10.218-2.667a7.6,7.6,0,0,0,.747-1.022c.315.175.747.407,1.27.7.217.108.441.233.682.366.175.091.357.191.549.3.764.415,1.644.9,2.617,1.429.556.3,1.139.623,1.752.955,9.147,5.01,23.66,13.027,25.721,14.588,3.041,2.3,5.89,6.812,8.566,17.313s4.786,31.221,4.786,31.221" transform="translate(-0.727 -17.699)" fill="#fee7d1"/>
          <path id="Trazado_874083" data-name="Trazado 874083" d="M83.553,111.617c-1.861,2.858-6.131,6.33-15.809,5.167-7.677-.922-11.573-2.75-13.542-4.386,2.334-1.18,4.461-2.268,6.247-3.223.814,2.152,3.049,3.672,5.766,4.553.208.066.424.132.64.191a19.645,19.645,0,0,0,4.461.69c4.694.191,7.826,0,10.219-2.667a7.658,7.658,0,0,0,.747-1.022c.316.174.747.407,1.271.7" transform="translate(-8.787 -17.699)" fill="#f4d4ba"/>
          <path id="Trazado_874084" data-name="Trazado 874084" d="M108.248,155.063c-2.277,11.927-.9,28.868-.9,28.868l-9.218-1.121,6.183-21.4Z" transform="translate(-15.909 -25.138)" fill="#f4d4ba"/>
          <path id="Trazado_874085" data-name="Trazado 874085" d="M33.082,148.417c1.289,4.788,2.394,23.313,2.394,23.313l5.89.781S37.778,157.775,36,153.566s-2.921-5.149-2.921-5.149" transform="translate(-5.363 -24.06)" fill="#f4d4ba"/>
          <path id="Trazado_874086" data-name="Trazado 874086" d="M84.826,112.825c-3.481,5.409-9.063,5.159-13.193,4.969l-.565-.025a21.221,21.221,0,0,1-3.282-.44c-2.2-.425-3.315-.639-4.635,1.579-1.587,2.675-4.835,12.61-6.771,18.55-.025.066-.042.133-.067.2-.5,1.537-.93,2.841-1.238,3.755a.311.311,0,0,1-.291.208.414.414,0,0,1-.1-.017.314.314,0,0,1-.2-.4c.308-.906.731-2.21,1.238-3.739.025-.066.042-.133.067-.2,2.069-6.347,5.2-15.95,6.829-18.676,1.129-1.91,2.277-2.251,3.672-2.135a8.837,8.837,0,0,0-.034-2.185c.208.068.424.133.639.191a8.291,8.291,0,0,1,.008,2.077q.486.075,1,.174a19.582,19.582,0,0,0,3.191.432l.573.025c4.17.191,9.329.423,12.611-4.644q.261.137.548.3" transform="translate(-8.83 -18.242)" fill="#f4c29d"/>
          <path id="Trazado_874087" data-name="Trazado 874087" d="M50.6,137.967a.822.822,0,0,1-.715.931.521.521,0,0,1-.108.008.838.838,0,0,1-.822-.722c-.05-.349-.1-.773-.167-1.246-.107-.731-.232-1.6-.365-2.559-.773-5.309-1.869-12.885-2.085-17.513.549-.291,1.1-.565,1.637-.84.108,4.428,1.329,12.836,2.085,18.111.1.673.191,1.3.266,1.869.116.781.207,1.445.274,1.961" transform="translate(-7.512 -18.809)" fill="#ef3218"/>
          <path id="Trazado_874088" data-name="Trazado 874088" d="M95.338,136.413v.017c-.025.323-.042.507-.042.523a.837.837,0,0,1-.83.757.224.224,0,0,1-.075-.008.831.831,0,0,1-.748-.906c0-.025.042-.416.091-1.113a137.434,137.434,0,0,0,.059-21.094c.556.3,1.138.623,1.753.955a143.153,143.153,0,0,1-.208,20.869" transform="translate(-15.18 -18.576)" fill="#ef3218"/>
          <path id="Trazado_874089" data-name="Trazado 874089" d="M39.364,165.7a.312.312,0,0,1-.287-.19l-2.9-6.872c-.044-.19-2.73-13.2-11.407-22.6a.312.312,0,1,1,.457-.423c8.8,9.531,11.516,22.707,11.543,22.838l2.882,6.813a.311.311,0,0,1-.287.432" transform="translate(-4.002 -21.969)" fill="#f4c29d"/>
          <path id="Trazado_874090" data-name="Trazado 874090" d="M104.461,164.225a.275.275,0,0,1-.064-.007.312.312,0,0,1-.242-.368l1.105-5.312a.322.322,0,0,1,.033-.087c.074-.133,7.5-13.493,16.643-21.54a.312.312,0,0,1,.411.468c-8.815,7.756-16.029,20.514-16.486,21.333l-1.1,5.265a.313.313,0,0,1-.3.248" transform="translate(-16.884 -22.183)" fill="#f4c29d"/>
          <path id="Trazado_874091" data-name="Trazado 874091" d="M105.355,251.874c-.141.225-1.7.955-4.611,1.844q-1.22.375-2.766.773a122.722,122.722,0,0,1-26.186,3.373c-1.993.066-4.07.1-6.239.083-2.675-.008-5.234-.075-7.684-.174-13.276-.524-23.088-2.135-28.546-3.506-.8-.191-1.5-.39-2.11-.574-1.778-.54-2.75-1-2.816-1.271-.275-1.1,7.875-39.361,9.4-48.068.382-2.2.9-5.093,1.454-8.225.266-1.454.531-2.966.8-4.478.041-.2.075-.407.107-.607.432-2.426.856-4.852,1.247-7.078.49-2.875.913-5.424,1.188-7.253a26.441,26.441,0,0,0,.315-2.7c0-2.027-1.57-10.567-2.334-14.2-.058-.257-.108-.49-.149-.69,0,0,9.254-19.972,9.67-19.83s4,4.137,16.482,4.137S83.381,139.3,83.381,139.3s8.041,12.17,10.135,17.255a5.091,5.091,0,0,1,.5,1.8c-.075,1.462-1.927,10.484-3.6,18.941-1.088,5.55-2.1,10.867-2.484,13.633-.033.25-.058.482-.075.69a5.081,5.081,0,0,0-.059,1.188c.416,1.986,17.962,58.378,17.555,59.068" transform="translate(-3.954 -22.582)" fill="#ff4824"/>
          <path id="Trazado_874092" data-name="Trazado 874092" d="M59.919,194.476C55.042,200.5,43.951,203.017,37.347,204c.266-1.454.531-2.965.8-4.478.042-.2.075-.407.108-.606.432-2.427.856-4.852,1.247-7.078l9.637-3.971Z" transform="translate(-6.054 -30.456)" fill="#ef3218"/>
          <path id="Trazado_874093" data-name="Trazado 874093" d="M40.554,196.677c-1.653,9.986-7.178,23.386-9.8,36.928a109.192,109.192,0,0,0-1.429,24.632c-.8-.191-1.5-.39-2.111-.574-1.777-.54-2.749-1-2.816-1.27-.274-1.105,7.876-39.362,9.4-48.069.382-2.2.906-5.093,1.454-8.225.266-1.454.532-2.966.8-4.478.042-.2.075-.407.108-.607.432-2.426.855-4.851,1.246-7.078.49-2.874.914-5.424,1.188-7.253a26.534,26.534,0,0,0,.316-2.7c0-2.027-1.57-10.567-2.334-14.2,4.868,12.428,5.574,23.378,3.988,32.89" transform="translate(-3.954 -26.552)" fill="#ef3218"/>
          <path id="Trazado_874094" data-name="Trazado 874094" d="M116.753,255.213c-.141.225-1.7.955-4.611,1.844q-1.22.375-2.766.773c-1.08-9.778-4.595-36.62-8.806-48.068-4.977-13.534-7.635-13.733-4.553-25.6,2.841-10.9,4.553-15.726,8.9-24.275a5.091,5.091,0,0,1,.5,1.8c-.075,1.462-1.927,10.484-3.6,18.941-1.088,5.55-2.1,10.867-2.484,13.633-.033.25-.058.482-.075.69a5.081,5.081,0,0,0-.059,1.188c.416,1.986,17.962,58.378,17.555,59.068" transform="translate(-15.352 -25.92)" fill="#ef3218"/>
          <path id="Trazado_874095" data-name="Trazado 874095" d="M90.188,200.919c-.034.25-.058.482-.075.69-6.364,2.285-15.112,3.174-23.86,3.174-10.875,0-21.733-1.371-27.956-3.14.042-.2.075-.407.108-.607,11.174,3.207,37.709,5.134,51.782-.116" transform="translate(-6.209 -32.572)" fill="#ef3218"/>
          <path id="Trazado_874096" data-name="Trazado 874096" d="M102.549,9.43l-9.3,39.7-.15.64L90.1,62.6a7.417,7.417,0,0,0-.357-1.5c-.649-1.479-4.976-5.533-14.365-6.638a27.6,27.6,0,0,0-7.311.075c-5.233.756-8.557,2.882-9.271,3.8-.249-1.512-.664-5.94-1.13-11.589-.016-.216-.033-.441-.049-.657C56.4,31.129,54.846,8.3,54.846,7.311c0-.805,2.833-3.339,8.383-5.2.017-.008.025-.008.041-.017.191-.059.39-.125.581-.183A41.628,41.628,0,0,1,73.115.167l.623-.05A52.546,52.546,0,0,1,79.155.033q1.359.05,2.642.174c.208.017.416.034.615.066a37.545,37.545,0,0,1,7.344,1.521c.2.058.4.125.6.191a33.761,33.761,0,0,1,6.14,2.742c.2.116.39.225.573.341a23.316,23.316,0,0,1,5.483,4.361" transform="translate(-8.891 0)" fill="#fee7d1"/>
          <path id="Trazado_874097" data-name="Trazado 874097" d="M15.056,367.784c-2.9,1.657-13.122,5.94-15.056,9.117,0,0,20.029.276,25.278,0a63.344,63.344,0,0,0,3.99-10.846c-.086.068-.175.145-.261.209-4.559,3.453-13.537,2.624-13.952,1.519" transform="translate(0 -59.342)" fill="#ff4824"/>
          <path id="Trazado_874098" data-name="Trazado 874098" d="M146.75,376.931l-16.012-9.654c-.829.829-3.868,1.382-6.057,1.374-1.668-.006-5.612-1.442-8.381-3.164a61.387,61.387,0,0,0-1.723,11.444Z" transform="translate(-18.574 -59.25)" fill="#ff4824"/>
          <path id="Trazado_874099" data-name="Trazado 874099" d="M90.526,81.3a8.8,8.8,0,0,0-.906,1.163s-.308-.232-.822-.631c-.349-.266-.8-.615-1.3-1.022-2.285-1.827-5.782-4.835-7.27-7.1-.465-.706-.938-1.455-1.4-2.194-1.8-2.916-3.39-5.724-3.39-5.724a24.694,24.694,0,0,1-3.306,4.81,25.523,25.523,0,0,1-4.246,3.938,33.959,33.959,0,0,1-6.646,3.781c-.457.2-.889.374-1.279.523a22.947,22.947,0,0,1-2.292.764,4.057,4.057,0,0,0-.706-1.005c-.24-4.319,1.321-8.681,2.177-9.77,1.014-1.287,7.186-4.976,16.582-3.871.25.025.49.058.731.091.34.05.664.1.989.15.9.149,1.753.332,2.551.531q.436.1.847.225c5.882,1.653,8.732,4.461,9.247,5.641a7.429,7.429,0,0,1,.357,1.5,27.681,27.681,0,0,1,.083,8.2" transform="translate(-9.23 -10.497)" fill="#ff4824"/>
          <path id="Trazado_874100" data-name="Trazado 874100" d="M92.32,80.629c-.943-.628-1.975.114-2.69.871a8.135,8.135,0,0,0-.9,1.155s-7.091-5.249-9.394-8.748-4.789-7.92-4.789-7.92A26.29,26.29,0,0,1,67,74.735,33.168,33.168,0,0,1,56.774,79.8a4.174,4.174,0,0,0-.7-1.005c-1.29-1.356-3.3-1.411-4.362,1.558-1.29,3.592,1.934,8.565,5.064,9.117,0,0,1.934,9.3,3.223,12.708s6.17,5.249,10.867,5.433,7.828,0,10.222-2.67a7.64,7.64,0,0,0,.746-1.026c2.3-3.664,5.055-12.235,5.055-12.235s2.3,1.012,4.789-1.382,2.3-8.564.644-9.669" transform="translate(-8.336 -10.697)" fill="#ffa581"/>
          <path id="Trazado_874101" data-name="Trazado 874101" d="M7.566,185.517c2.578-3.316,10.245-9.739,13.007-9.554,1.942.13,10.312-.416,15.9.039a36.68,36.68,0,0,0-8.375-4.942c-4.421-1.657-11.972-1.75-17.22,1.563s-6.262,6.633-7.368,10.961a18.137,18.137,0,0,0,.442,10.689h0c-.216-2.891,1.406-5.923,3.609-8.755" transform="translate(-0.475 -27.549)" fill="#f4c29d"/>
          <path id="Trazado_874102" data-name="Trazado 874102" d="M140.128,198.285c-.277-4.052,0-7.551-4.881-12.616s-12.155-8.472-17.4-7.92a18.867,18.867,0,0,0-11.235,5.894,17.754,17.754,0,0,0,4.7.736c3.223.184,10.221-.184,15.931,2.579s9.946,9.945,9.486,14.366c-.386,3.705-.646,7.215-6.2,8.254h0a12.51,12.51,0,0,0,5.828-2.177c2.947-2.026,4.052-5.065,3.775-9.117" transform="translate(-17.283 -28.806)" fill="#f4c29d"/>
          <path id="Trazado_874103" data-name="Trazado 874103" d="M133.3,199.94c-.383,3.705-.641,7.211-6.2,8.258a19.413,19.413,0,0,1-2.193.266c-.515.025-1.064.042-1.646.042a37.136,37.136,0,0,1-20.361-6.2c-.416-.266-.807-.54-1.188-.806-4.786-3.406-5.891-5.15-5.891-5.15s-2.209,1.2-6.629-1.844-3.6-9.487-3.6-9.487,1.013-7.643,2.856-11.507,2.768-4.976,4.146-4.054c1.006.673-.033,5.333-.68,7.826-.225.872-.4,1.479-.416,1.562.059-.059.282-.291.632-.615l.008-.008c1.53-1.437,5.334-4.677,6.722-2.783.98,1.355-.441,3.074-.7,3.382.291-.216,1.993-1.429,3-.341,1.04,1.13-.613,2.75-.806,2.933a1.891,1.891,0,0,1,2.652.532,2.322,2.322,0,0,1,.183.316s.132.049.406.124a20.965,20.965,0,0,0,4.287.607c2.451.15,7.094-.033,11.689,1.088a22.1,22.1,0,0,1,4.246,1.5c5.707,2.758,9.944,9.944,9.48,14.364" transform="translate(-13.867 -27.422)" fill="#ffa581"/>
          <path id="Trazado_874104" data-name="Trazado 874104" d="M66.478,188.7c-.282-.486-.535-.833-.535-.833a7.718,7.718,0,0,0,.535.833" transform="translate(-10.69 -30.456)" fill="#c63c1c"/>
          <path id="Trazado_874105" data-name="Trazado 874105" d="M58.406,185.438c-.266,1.055-1.371,1.62-1.944.83a7.32,7.32,0,0,0-.5-.764,5.859,5.859,0,0,0,.5.764c.514.9,1.129,2.26.473,2.85a1.86,1.86,0,0,1-1.977.042,8.247,8.247,0,0,0-1.063-.59,6.432,6.432,0,0,0,1.063.59c.773.507,1.579,1.279.864,1.985a3.471,3.471,0,0,1-1.287.9,1.963,1.963,0,0,0-.449.025.622.622,0,0,0,.449-.025c.93.042,1.86.69.839,1.9-1.2,1.42-3.688,2.725-8.566,2.451s-5.433-3.223-5.433-3.223-.183.116-.556.316c-.158.083-.341.183-.566.3a51,51,0,0,1-6.986,2.883c-5.434,1.844-10.493,4.611-16.666,4.52a27.656,27.656,0,0,1-6.289-.739c-3.057-.773-5.242-2.16-5.89-4.237a6.353,6.353,0,0,1-.266-1.471c-.224-2.883,1.4-5.924,3.605-8.748,2.468-3.181,6.722-9.454,12.587-10.3.249-.041.5-.066.756-.083,1.944-.125,9.978.416,15.569.864,2.359.191,4.179.349,4.7.4,0,0,1.2-1.378,2.667-2.757s4.627-2.493,9.047,1.653,5.75,8.025,5.317,9.67" transform="translate(-0.67 -28.023)" fill="#ffa581"/>
          <path id="Trazado_874106" data-name="Trazado 874106" d="M62.965,79.828a5.208,5.208,0,0,1,6.212-1.021.326.326,0,0,1-.116.606,22.715,22.715,0,0,0-5.706.9.322.322,0,0,1-.39-.485" transform="translate(-10.196 -12.68)" fill="#ed3118"/>
          <path id="Trazado_874107" data-name="Trazado 874107" d="M80.665,78.517a6.172,6.172,0,0,1,7.693,1.475.32.32,0,0,1-.072.447.327.327,0,0,1-.332.028,12.56,12.56,0,0,0-3.462-.948c-1.114-.116-2.568-.193-3.681-.4a.332.332,0,0,1-.146-.606" transform="translate(-13.053 -12.607)" fill="#ed3118"/>
          <path id="Trazado_874108" data-name="Trazado 874108" d="M92.574,81.884c-.349-.266-.8-.615-1.3-1.022-2.027-3.481-6.721-11.19-11.049-15.76.341.05.664.1.989.15,4.927,5.45,10.143,14.472,11.357,16.632" transform="translate(-13.006 -10.554)" fill="#ff6b5c"/>
          <path id="Trazado_874109" data-name="Trazado 874109" d="M93.664,79.906a.161.161,0,0,1-.066.008.31.31,0,0,1-.3-.241c-.017-.049-1.263-5.284-8.782-13.467a.294.294,0,0,1-.066-.291q.436.1.848.225c7.36,8.117,8.557,13.176,8.607,13.4a.306.306,0,0,1-.241.365" transform="translate(-13.688 -10.686)" fill="#ff6b5c"/>
          <path id="Trazado_874110" data-name="Trazado 874110" d="M72.274,68.543a94.911,94.911,0,0,1-10.451,10.3c-.457.2-.889.374-1.279.523a.31.31,0,0,1,.091-.357A91.472,91.472,0,0,0,71.8,68.145a.307.307,0,0,1,.44-.034.3.3,0,0,1,.033.432" transform="translate(-9.811 -11.029)" fill="#ff6b5c"/>
          <path id="Trazado_874111" data-name="Trazado 874111" d="M58.465,79.408a.308.308,0,0,1-.1-.016.311.311,0,0,1-.2-.394c.086-.258,2.194-6.376,9.993-11.9a.312.312,0,0,1,.36.509c-7.633,5.4-9.741,11.524-9.761,11.585a.311.311,0,0,1-.3.213" transform="translate(-9.427 -10.869)" fill="#ff6b5c"/>
          <path id="Trazado_874112" data-name="Trazado 874112" d="M56.541,88.613a.312.312,0,0,1-.3-.244,13.923,13.923,0,0,0-1.711-4.106.312.312,0,0,1,.515-.35,14.343,14.343,0,0,1,1.8,4.32.313.313,0,0,1-.3.38" transform="translate(-8.83 -13.581)" fill="#ff8661"/>
          <path id="Trazado_874113" data-name="Trazado 874113" d="M95.311,92.214a.367.367,0,0,1-.06-.006A.312.312,0,0,1,95,91.843a9.4,9.4,0,0,1,2.306-4.521.311.311,0,0,1,.421.459,8.937,8.937,0,0,0-2.115,4.181.311.311,0,0,1-.3.252" transform="translate(-15.4 -14.143)" fill="#ff8661"/>
          <path id="Trazado_874114" data-name="Trazado 874114" d="M70.253,93.488a.312.312,0,0,1-.3-.386c.09-.367,2.23-9.034,3.334-11.451a.311.311,0,1,1,.566.259,107.791,107.791,0,0,0-3.181,10.885,7.258,7.258,0,0,0,3.311-1.438.311.311,0,0,1,.417.463,8.356,8.356,0,0,1-4.111,1.667.23.23,0,0,1-.034,0" transform="translate(-11.338 -13.207)" fill="#ff8661"/>
          <path id="Trazado_874115" data-name="Trazado 874115" d="M72.982,100.063a6,6,0,0,1-2.9-.776.311.311,0,0,1,.332-.527,4.752,4.752,0,0,0,5.365-.325.312.312,0,0,1,.389.487,5.007,5.007,0,0,1-3.189,1.141" transform="translate(-11.338 -15.947)" fill="#f2513b"/>
          <path id="Trazado_874116" data-name="Trazado 874116" d="M103.36,190.622c-1.878,1.836-4.245,3.215-6.115,3.215a2.7,2.7,0,0,1-1.968-.756,1.45,1.45,0,0,1-.474-1.346,1.724,1.724,0,0,1,.133-.374,3.256,3.256,0,0,1-1.894.191,1.008,1.008,0,0,1-.64-.606c-.324-.831.424-1.886,1.346-2.792a4.8,4.8,0,0,1-2.534.532.942.942,0,0,1-.59-.416c-.407-.69.349-1.728,1.354-2.691a3.962,3.962,0,0,1-1.811.249,1.7,1.7,0,0,1-1.18-.715,1.724,1.724,0,0,1-.3-1.42c.324-1.629,2.608-3.182,3.073-3.481.175-.365.408-.847.665-1.354-.225.872-.4,1.479-.416,1.562.058-.058.282-.291.632-.614-.116.249-.241.506-.366.756a.264.264,0,0,1-.107.124c-.025.017-2.576,1.62-2.875,3.124a1.151,1.151,0,0,0,.2.947,1.119,1.119,0,0,0,.773.457c1.254.183,3.181-.964,4.087-1.57.2-.141.374-.257.507-.349a.307.307,0,0,1,.432.075.315.315,0,0,1-.066.432c-.034.017-.225.166-.531.374-2.044,1.462-3.855,3.232-3.531,3.78a.278.278,0,0,0,.2.133c1.03.257,3.879-1.321,4.893-1.944a.312.312,0,0,1,.34.523c-1.6,1.056-3.987,3.083-3.614,4.055a.393.393,0,0,0,.257.24,4.958,4.958,0,0,0,2.742-.7,8.025,8.025,0,0,1,1.612-.856.3.3,0,0,1,.4.15.33.33,0,0,1-.116.407c-.149.083-.789.465-1.579.847a1.981,1.981,0,0,0-.881,1.047.809.809,0,0,0,.308.773c1.5,1.512,4.827-.141,7.2-2.45,1.554-1.521,1.869-3.316,1.4-3.938-.257-.349-.706-.2-1.038-.017a.317.317,0,0,1-.375-.059.327.327,0,0,1-.049-.374,5.785,5.785,0,0,0,.648-2.277,2.206,2.206,0,0,1,.183.316s.133.05.407.125a6.927,6.927,0,0,1-.382,1.462,1.155,1.155,0,0,1,1.114.448c.681.931.257,3.066-1.479,4.752" transform="translate(-14.371 -28.995)" fill="#ff8661"/>
          <path id="Trazado_874117" data-name="Trazado 874117" d="M47.693,195.308c-.158.083-.34.183-.565.3-.308-.98-1.188-4.611.075-11.265a.313.313,0,0,1,.615.116c-1.188,6.247-.432,9.8-.125,10.85" transform="translate(-7.545 -29.843)" fill="#ff8661"/>
          <path id="Trazado_874118" data-name="Trazado 874118" d="M61.245,176.2c1.174-3.454,3.868-3.454,5.388-.622s1.934,8.427.69,8.979-6.078-8.357-6.078-8.357" transform="translate(-9.929 -28.131)" fill="#ffa581"/>
          <path id="Trazado_874119" data-name="Trazado 874119" d="M65.452,186.59a1.248,1.248,0,0,1-1.13-.719L61.581,180a1.246,1.246,0,0,1,2.258-1.055l2.741,5.87a1.246,1.246,0,0,1-1.129,1.774" transform="translate(-9.964 -28.893)" fill="#017d5c"/>
          <path id="Trazado_874120" data-name="Trazado 874120" d="M49.864,258.145a.312.312,0,0,1-.288-.194c-.034-.083-3.452-8.551-7.737-28.968a.312.312,0,1,1,.61-.128c4.27,20.351,7.67,28.778,7.7,28.861a.31.31,0,0,1-.17.406.3.3,0,0,1-.118.023" transform="translate(-6.782 -37.06)" fill="#ef3218"/>
          <path id="Trazado_874121" data-name="Trazado 874121" d="M83.249,263.711a.268.268,0,0,1-.063-.007.31.31,0,0,1-.242-.367c.021-.1,2.162-10.46,5.687-21.763a.311.311,0,1,1,.594.185c-3.515,11.272-5.65,21.6-5.671,21.7a.311.311,0,0,1-.3.249" transform="translate(-13.445 -39.127)" fill="#ef3218"/>
          <path id="Trazado_874122" data-name="Trazado 874122" d="M60.36,162.669a.312.312,0,0,1-.066-.616,82.547,82.547,0,0,0,22.7-9.533.311.311,0,1,1,.325.531,83.2,83.2,0,0,1-22.889,9.611.355.355,0,0,1-.066.007" transform="translate(-9.735 -24.718)" fill="#ef3218"/>
          <path id="Trazado_874123" data-name="Trazado 874123" d="M66.869,87.261c0,.762-.391,1.382-.875,1.382s-.875-.619-.875-1.382.391-1.382.875-1.382.875.619.875,1.382" transform="translate(-10.557 -13.922)" fill="#270407"/>
          <path id="Trazado_874124" data-name="Trazado 874124" d="M84.424,88.872c-.2.736-.742,1.229-1.209,1.1s-.68-.827-.478-1.563.742-1.229,1.208-1.1.681.828.479,1.563" transform="translate(-13.4 -14.151)" fill="#270407"/>
          <path id="Trazado_874125" data-name="Trazado 874125" d="M65.031,94.061a2.7,2.7,0,1,1-3.133-1.17,2.4,2.4,0,0,1,3.133,1.17" transform="translate(-9.719 -15.033)" fill="#ff8661"/>
          <path id="Trazado_874126" data-name="Trazado 874126" d="M90.252,95.93a2.7,2.7,0,1,1-1.75-2.849,2.4,2.4,0,0,1,1.75,2.849" transform="translate(-13.816 -15.057)" fill="#ff8661"/>
          <path id="Trazado_874127" data-name="Trazado 874127" d="M10.312,201c-3.057-.773-5.242-2.16-5.89-4.237a6.4,6.4,0,0,1-.266-1.47c-.225-2.882,1.4-5.923,3.605-8.748,2.468-3.182,6.722-9.455,12.587-10.3C11.084,184.2,10.021,194.9,10.312,201" transform="translate(-0.67 -28.571)" fill="#ff9570"/>
          <path id="Trazado_874128" data-name="Trazado 874128" d="M139.89,202.829c-.383,3.705-.641,7.211-6.2,8.258a19.406,19.406,0,0,1-2.193.266c2.566-6.43,2.434-17.105-5.334-24.383a22.1,22.1,0,0,1,4.246,1.5c5.707,2.758,9.944,9.944,9.48,14.364" transform="translate(-20.453 -30.31)" fill="#ff9570"/>
          <path id="Trazado_874129" data-name="Trazado 874129" d="M68.072,54.937c-5.233.756-8.557,2.882-9.271,3.8-.25-1.512-.665-5.94-1.13-11.589-.017-.216-.033-.441-.049-.657C56.4,31.534,54.846,8.705,54.846,7.717c0-.806,2.833-3.34,8.382-5.2.017-.008.025-.008.042-.017a170.6,170.6,0,0,0,4.8,52.438" transform="translate(-8.891 -0.405)" fill="#f4d4ba"/>
          <path id="Trazado_874130" data-name="Trazado 874130" d="M38.759,278.655c-4.535,23.461-14.023,70.267-14.123,70.773a.319.319,0,0,1-.308.25c-.016,0-.041-.008-.058-.008a.3.3,0,0,1-.24-.365c.1-.5,9.57-47.271,14.114-70.74.2.034.4.058.615.091" transform="translate(-3.894 -45.159)" fill="#f4c29d"/>
          <path id="Trazado_874131" data-name="Trazado 874131" d="M123.818,350.938c-.025,0-.05.008-.075.008a.318.318,0,0,1-.308-.233c-.125-.5-12.462-46.839-19.639-72.169.208-.034.415-.067.615-.108,7.186,25.347,19.5,71.621,19.631,72.119a.321.321,0,0,1-.225.382" transform="translate(-16.827 -45.138)" fill="#f4c29d"/>
          <path id="Trazado_874132" data-name="Trazado 874132" d="M89.686,46.712a33.011,33.011,0,0,1,4.1,2.442l-.15.639a34.315,34.315,0,0,0-16.964-6.1c-9.462-.773-15.91,1.711-18.468,3.065-.017-.215-.034-.44-.05-.656a26.689,26.689,0,0,1,5.608-2.052V2.133c.208-.067.416-.142.623-.2V43.9A36.33,36.33,0,0,1,70.911,43L73.652.188l.623-.049L71.533,42.965a44.477,44.477,0,0,1,5.192.108c.341.034.673.083,1.005.116L82.334.23c.208.017.416.034.615.066L78.354,43.264a34.427,34.427,0,0,1,4.312.823l7.626-42.27c.2.058.4.125.6.191L83.273,44.236A34.438,34.438,0,0,1,89.1,46.43L97.03,4.75c.2.116.39.224.573.341Z" transform="translate(-9.428 -0.023)" fill="#f4c29d"/>
          <path id="Trazado_874133" data-name="Trazado 874133" d="M47.727,214.828c1.589-2.889,6.291-3.517,8.722-2.613A11.174,11.174,0,0,1,62.062,208c3.485-.969,7.7,1.621,7.7,1.621s1.123-4.131,4.177-4.971a11.324,11.324,0,0,1,5.769,0s-.734-3.493,2.081-5.356a15.432,15.432,0,0,1,3.972-2.14S90.088,211.8,72.706,218.57s-24.979-3.741-24.979-3.741" transform="translate(-7.737 -31.962)" fill="#fee7d1"/>
          <path id="Trazado_874134" data-name="Trazado 874134" d="M46.19,214.012a.209.209,0,0,1-.209-.2c0-.092-.223-9.329-.564-16a.209.209,0,0,1,.2-.219.206.206,0,0,1,.218.2c.342,6.679.562,15.922.565,16.014a.208.208,0,0,1-.2.213Z" transform="translate(-7.363 -32.032)" fill="#0eafaf"/>
          <path id="Trazado_874135" data-name="Trazado 874135" d="M52.627,217.527a.208.208,0,0,1-.208-.2c0-.2-.282-19.922-.876-23.8a.208.208,0,0,1,.411-.064c.6,3.906.869,23.044.881,23.856a.207.207,0,0,1-.205.211Z" transform="translate(-8.356 -31.334)" fill="#0eafaf"/>
          <path id="Trazado_874136" data-name="Trazado 874136" d="M60.884,219.657a.207.207,0,0,1-.207-.2c-.012-.24-1.181-23.938-1.657-29.716a.208.208,0,0,1,.414-.034c.478,5.786,1.646,29.491,1.658,29.729a.209.209,0,0,1-.2.219Z" transform="translate(-9.568 -30.723)" fill="#0eafaf"/>
          <path id="Trazado_874137" data-name="Trazado 874137" d="M68.566,219.2a.208.208,0,0,1-.207-.194c-.018-.259-1.871-26.088-2.024-32.075a.207.207,0,0,1,.2-.214.2.2,0,0,1,.213.2c.153,5.977,2.005,31.8,2.024,32.058a.208.208,0,0,1-.193.222h-.015" transform="translate(-10.754 -30.27)" fill="#0eafaf"/>
          <path id="Trazado_874138" data-name="Trazado 874138" d="M75.3,217.338a.208.208,0,0,1-.208-.2c-.008-.245-.756-24.607-.824-32.052a.206.206,0,0,1,.205-.209.226.226,0,0,1,.21.206c.068,7.44.816,31.8.824,32.041a.208.208,0,0,1-.2.214Z" transform="translate(-12.04 -29.971)" fill="#0eafaf"/>
          <path id="Trazado_874139" data-name="Trazado 874139" d="M81.6,215.337H81.6a.209.209,0,0,1-.2-.216c.01-.23.957-22.991,0-30.007a.207.207,0,0,1,.178-.235.216.216,0,0,1,.233.178c.96,7.052.012,29.852,0,30.082a.209.209,0,0,1-.208.2" transform="translate(-13.195 -29.971)" fill="#0eafaf"/>
          <path id="Trazado_874140" data-name="Trazado 874140" d="M87.961,211.262h0a.208.208,0,0,1-.205-.211c0-.21.281-21.1-.51-25.933a.207.207,0,0,1,.171-.239.211.211,0,0,1,.239.172c.8,4.866.519,25.8.516,26.006a.207.207,0,0,1-.208.2" transform="translate(-14.143 -29.971)" fill="#0eafaf"/>
          <path id="Trazado_874141" data-name="Trazado 874141" d="M60.584,222.254a.213.213,0,0,1-.127-.044c-.159-.125-15.979-12.456-20.489-16.305a.208.208,0,0,1,.27-.316c4.5,3.843,20.315,16.169,20.474,16.293a.208.208,0,0,1-.127.372" transform="translate(-6.468 -33.321)" fill="#0eafaf"/>
          <path id="Trazado_874142" data-name="Trazado 874142" d="M67.692,220.645a.211.211,0,0,1-.133-.049c-.851-.712-20.891-17.5-23.823-20.951a.208.208,0,0,1,.317-.269c2.909,3.43,23.564,20.728,23.773,20.9a.208.208,0,0,1-.133.367" transform="translate(-7.082 -32.31)" fill="#0eafaf"/>
          <path id="Trazado_874143" data-name="Trazado 874143" d="M74.456,217.741a.206.206,0,0,1-.139-.054C66.8,210.912,49.3,195.133,49.162,194.926a.208.208,0,0,1,.333-.246c.411.434,16.586,15.027,25.1,22.7a.208.208,0,0,1-.139.362" transform="translate(-7.964 -31.548)" fill="#0eafaf"/>
          <path id="Trazado_874144" data-name="Trazado 874144" d="M81.294,213.792a.2.2,0,0,1-.14-.054L56.367,191.126a.208.208,0,1,1,.28-.307l24.787,22.611a.207.207,0,0,1-.14.361" transform="translate(-9.127 -30.926)" fill="#0eafaf"/>
          <path id="Trazado_874145" data-name="Trazado 874145" d="M86.454,208.369a.2.2,0,0,1-.138-.053L64.107,188.485a.208.208,0,0,1,.277-.31l22.208,19.831a.207.207,0,0,1-.138.363" transform="translate(-10.381 -30.497)" fill="#0eafaf"/>
          <path id="Trazado_874146" data-name="Trazado 874146" d="M89.425,203.494a.206.206,0,0,1-.146-.059L71.693,186.141a.208.208,0,0,1,.291-.3l17.587,17.295a.208.208,0,0,1-.146.356" transform="translate(-11.612 -30.118)" fill="#0eafaf"/>
          <path id="Trazado_874147" data-name="Trazado 874147" d="M91.268,196.9a.2.2,0,0,1-.144-.059L79.07,185.234a.207.207,0,1,1,.288-.3l12.054,11.61a.207.207,0,0,1-.144.357" transform="translate(-12.808 -29.971)" fill="#0eafaf"/>
          <path id="Trazado_874148" data-name="Trazado 874148" d="M61.014,220.283c-14.84,0-21.428-14.5-21.5-14.669a.831.831,0,0,1,1.52-.671c.343.774,8.611,18.875,28.15,12.233,6.86-2.334,11.421-6.168,13.559-11.4a21.053,21.053,0,0,0-.116-15.144.831.831,0,1,1,1.484-.748,22.562,22.562,0,0,1,.17,16.521c-2.328,5.7-7.228,9.849-14.562,12.342a26.952,26.952,0,0,1-8.7,1.535" transform="translate(-6.393 -30.708)" fill="#017d5c"/>
          <path id="Trazado_874149" data-name="Trazado 874149" d="M80.377,195.762a3.271,3.271,0,0,1-.277-.318c-.05-.059-.084-.092-.142-.151v-.042c0-.268,0-.528-.008-.788-.092.109-.2.218-.31.327q-.54.566-1.181,1.131c-.209.184-.427.369-.645.553-.1.092-.209.176-.318.26-.654.536-1.357,1.056-2.1,1.567-.142.1-.285.193-.427.285-.419.285-.846.561-1.29.821-.126.084-.243.159-.369.235-1.014.6-2.086,1.2-3.209,1.751.452-.008.913-.025,1.366-.05.327-.008.654-.025.972-.042h.042c.05,0,.092-.008.142-.008h.042c.2-.008.419-.025.62-.042s.419-.025.62-.042h.017c.235-.134.461-.268.687-.419.117-.067.235-.134.344-.209.008,0,.017-.008.025-.017l.4-.251a36.25,36.25,0,0,0,3.31-2.4c.109-.075.209-.168.318-.26.193-.159.377-.318.561-.478.142-.126.285-.251.419-.385.134-.117.268-.251.4-.385.008-.209,0-.427-.008-.637m-10.985,6.251c-.008-.084-.008-.168-.017-.26-.134.067-.277.134-.411.193a.685.685,0,0,1-.159.075c-.318.159-.637.3-.964.452l1.173,1.064c-.017-.5-.034-1.005-.042-1.517.142-.008.276-.008.419-.008m10.985-6.251a3.271,3.271,0,0,1-.277-.318c-.05-.059-.084-.092-.142-.151v-.042c0-.268,0-.528-.008-.788-.092.109-.2.218-.31.327q-.54.566-1.181,1.131c-.209.184-.427.369-.645.553-.1.092-.209.176-.318.26-.654.536-1.357,1.056-2.1,1.567-.142.1-.285.193-.427.285-.419.285-.846.561-1.29.821-.126.084-.243.159-.369.235-1.014.6-2.086,1.2-3.209,1.751.452-.008.913-.025,1.366-.05.327-.008.654-.025.972-.042h.042c.05,0,.092-.008.142-.008h.042c.2-.008.419-.025.62-.042s.419-.025.62-.042h.017c.235-.134.461-.268.687-.419.117-.067.235-.134.344-.209.008,0,.017-.008.025-.017l.4-.251a36.25,36.25,0,0,0,3.31-2.4c.109-.075.209-.168.318-.26.193-.159.377-.318.561-.478.142-.126.285-.251.419-.385.134-.117.268-.251.4-.385.008-.209,0-.427-.008-.637m-10.985,6.251c-.008-.084-.008-.168-.017-.26-.134.067-.277.134-.411.193a.685.685,0,0,1-.159.075c-.318.159-.637.3-.964.452l1.173,1.064c-.017-.5-.034-1.005-.042-1.517.142-.008.276-.008.419-.008m10.985-6.251a3.271,3.271,0,0,1-.277-.318c-.05-.059-.084-.092-.142-.151v-.042c0-.268,0-.528-.008-.788-.092.109-.2.218-.31.327q-.54.566-1.181,1.131c-.209.184-.427.369-.645.553-.1.092-.209.176-.318.26-.654.536-1.357,1.056-2.1,1.567-.142.1-.285.193-.427.285-.419.285-.846.561-1.29.821-.126.084-.243.159-.369.235-1.014.6-2.086,1.2-3.209,1.751.452-.008.913-.025,1.366-.05.327-.008.654-.025.972-.042h.042c.05,0,.092-.008.142-.008h.042c.2-.008.419-.025.62-.042s.419-.025.62-.042h.017c.235-.134.461-.268.687-.419.117-.067.235-.134.344-.209.008,0,.017-.008.025-.017l.4-.251a36.25,36.25,0,0,0,3.31-2.4c.109-.075.209-.168.318-.26.193-.159.377-.318.561-.478.142-.126.285-.251.419-.385.134-.117.268-.251.4-.385.008-.209,0-.427-.008-.637m-10.985,6.251c-.008-.084-.008-.168-.017-.26-.134.067-.277.134-.411.193a.685.685,0,0,1-.159.075c-.318.159-.637.3-.964.452l1.173,1.064c-.017-.5-.034-1.005-.042-1.517.142-.008.276-.008.419-.008m10.985-6.251a3.271,3.271,0,0,1-.277-.318c-.05-.059-.084-.092-.142-.151v-.042c0-.268,0-.528-.008-.788-.092.109-.2.218-.31.327q-.54.566-1.181,1.131c-.209.184-.427.369-.645.553-.1.092-.209.176-.318.26-.654.536-1.357,1.056-2.1,1.567-.142.1-.285.193-.427.285-.419.285-.846.561-1.29.821-.126.084-.243.159-.369.235-1.014.6-2.086,1.2-3.209,1.751.452-.008.913-.025,1.366-.05.327-.008.654-.025.972-.042h.042c.05,0,.092-.008.142-.008h.042c.2-.008.419-.025.62-.042s.419-.025.62-.042h.017c.235-.134.461-.268.687-.419.117-.067.235-.134.344-.209.008,0,.017-.008.025-.017l.4-.251a36.25,36.25,0,0,0,3.31-2.4c.109-.075.209-.168.318-.26.193-.159.377-.318.561-.478.142-.126.285-.251.419-.385.134-.117.268-.251.4-.385.008-.209,0-.427-.008-.637m-11,5.991c-.134.067-.277.134-.411.193a.685.685,0,0,1-.159.075c-.318.159-.637.3-.964.452l1.173,1.064c-.017-.5-.034-1.005-.042-1.517.142-.008.276-.008.419-.008-.008-.084-.008-.168-.017-.26m14.764-12.577v-.008a2.771,2.771,0,0,0-.034-.276,4.558,4.558,0,0,0-.218-.821,3.7,3.7,0,0,0-.2-.452,3.793,3.793,0,0,0-.344-.553,2.924,2.924,0,0,0-.327-.411,4.734,4.734,0,0,0-.628-.595h-.008a6.242,6.242,0,0,0-1.031-.67,6.847,6.847,0,0,0-.7-.327h-.008a10.726,10.726,0,0,0-2.07-.62,19.55,19.55,0,0,0-3.913-.394,40.658,40.658,0,0,0-10.381,1.424h-.008c-.075.017-.142.034-.226.059-.344.084-.7.184-1.047.285a.543.543,0,0,0-.109.034c-.762.209-1.525.444-2.3.7s-1.533.52-2.3.8c-1.793.67-3.5,1.408-5.111,2.187a45.607,45.607,0,0,0-7,4.148c-.2.134-.394.285-.578.427a27.514,27.514,0,0,0-2.12,1.768c-.536.494-1.022.989-1.466,1.475a15.78,15.78,0,0,0-1.215,1.517c-.126.184-.251.369-.352.545a7.185,7.185,0,0,0-1.265,3.72,3.957,3.957,0,0,0,.235,1.433.617.617,0,0,0,.034.117l.025.05a.076.076,0,0,0,.025.059c.017.034.042.075.067.134s.059.126.1.209c.034.067.075.142.117.226,0,.017.017.034.025.05a4.905,4.905,0,0,0,1.567,1.567,8.188,8.188,0,0,0,1.843.888,11.375,11.375,0,0,0,1.659.452,3.5,3.5,0,0,0,.427.075,16.591,16.591,0,0,0,2.237.251,6.651,6.651,0,0,0,.712.033c.251.017.511.017.771.017.411,0,.83-.008,1.257-.034.134,0,.277-.008.419-.017a37.652,37.652,0,0,0,4.391-.511H55.1c.176-.025.352-.059.528-.092.427-.075.855-.159,1.29-.251l.344-.075h.008c.017-.008.042-.008.059-.017,1.542-.344,3.142-.771,4.776-1.29.151-.042.3-.092.461-.142l.528-.176c.134-.05.276-.092.411-.142l.436-.151,1.106-.4c1.274-.478,2.522-.989,3.72-1.533.084-.042.168-.075.251-.117.059-.025.109-.05.159-.067.092-.042.176-.084.26-.117,1.156-.545,2.262-1.106,3.318-1.693.394-.218.762-.444,1.14-.662a.008.008,0,0,1,.008-.008h.017c.235-.134.461-.268.687-.419.117-.067.235-.134.344-.209.008,0,.017-.008.025-.017l.4-.251a36.25,36.25,0,0,0,3.31-2.4c.109-.075.209-.168.318-.26.193-.159.377-.318.561-.478.142-.126.285-.251.419-.385.134-.117.268-.251.4-.385.109-.092.209-.2.31-.3a17.575,17.575,0,0,0,1.533-1.743c.092-.117.168-.226.243-.335a10.408,10.408,0,0,0,.972-1.609,6.085,6.085,0,0,0,.712-2.907,2.134,2.134,0,0,0-.017-.327m-2.882,3.678c-.075.109-.151.226-.243.335a10.609,10.609,0,0,1-.662.83c-.126.142-.26.293-.4.444-.092.109-.2.218-.31.327q-.54.566-1.181,1.131c-.209.184-.427.369-.645.553-.1.092-.209.176-.318.26-.654.536-1.357,1.056-2.1,1.567-.142.1-.285.193-.427.285-.419.285-.846.561-1.29.821-.126.084-.243.159-.369.235-1.014.6-2.086,1.2-3.209,1.751h-.05c-.235.126-.427.243-.67.36-.134.067-.277.134-.411.193a.685.685,0,0,1-.159.075c-.318.159-.637.3-.964.452-.134.059-.277.117-.419.184-.964.419-1.952.821-2.958,1.2-.36.134-.721.268-1.081.394-.142.05-.277.1-.411.134-.62.226-1.223.419-1.827.6-.159.05-.318.1-.469.142-1.181.36-2.329.662-3.435.913-.142.034-.285.067-.419.092q-1.458.327-2.815.528c-.184.025-.369.059-.553.075-.98.142-1.91.235-2.8.285-.142.008-.285.017-.419.017a21.627,21.627,0,0,1-4.282-.176c-.251-.034-.486-.075-.712-.126l-.142-.025h-.008c-.084-.017-.176-.042-.26-.059a6.845,6.845,0,0,1-3.008-1.391,2.962,2.962,0,0,1-.6-.7.064.064,0,0,1-.017-.034,1.294,1.294,0,0,1-.142-.285.845.845,0,0,1-.059-.126c-.008-.017-.008-.025-.017-.042a3.24,3.24,0,0,1-.151-.821,3.573,3.573,0,0,1,.017-.419c0-.034.008-.075.008-.109a6.69,6.69,0,0,1,1.29-2.924c.117-.176.251-.352.4-.536.184-.243.394-.494.612-.746.176-.193.352-.385.553-.578.092-.1.193-.2.293-.3.151-.151.31-.3.469-.444.126-.126.26-.251.4-.369a27.766,27.766,0,0,1,2.187-1.76c.452-.327.922-.654,1.416-.972.117-.084.235-.159.352-.235.276-.176.553-.352.846-.536.126-.075.26-.159.394-.235a48.425,48.425,0,0,1,4.34-2.3c.134-.067.276-.134.411-.193a.141.141,0,0,1,.042-.017h.008c.335-.159.67-.31,1.014-.461.134-.059.277-.117.411-.176.83-.352,1.684-.7,2.572-1.031.578-.218,1.148-.419,1.726-.62l.452-.151c.31-.1.62-.2.922-.293h.008l.008-.008H62c.126-.042.26-.084.385-.117.57-.176,1.14-.335,1.7-.486,1.022-.276,2.028-.52,3.016-.721.159-.034.327-.067.486-.092H67.6c.344-.067.67-.134,1-.184l.419-.075a35.963,35.963,0,0,1,4.256-.436c.193-.008.394-.017.578-.017s.369-.008.553-.008h.235c.142,0,.285.008.419.017a17.282,17.282,0,0,1,3.234.352,9.1,9.1,0,0,1,1.341.377,1.442,1.442,0,0,1,.176.059c.084.034.168.067.243.1a3.8,3.8,0,0,1,2.279,2.044,2.907,2.907,0,0,1,.159.721v.008a5.566,5.566,0,0,1-1.232,3.469m-11.864,9.158c-.008-.084-.008-.168-.017-.26-.134.067-.277.134-.411.193a.685.685,0,0,1-.159.075c-.318.159-.637.3-.964.452l1.173,1.064c-.017-.5-.034-1.005-.042-1.517.142-.008.276-.008.419-.008m10.985-6.251a3.271,3.271,0,0,1-.277-.318c-.05-.059-.084-.092-.142-.151v-.042c0-.268,0-.528-.008-.788-.092.109-.2.218-.31.327q-.54.566-1.181,1.131c-.209.184-.427.369-.645.553-.1.092-.209.176-.318.26-.654.536-1.357,1.056-2.1,1.567-.142.1-.285.193-.427.285-.419.285-.846.561-1.29.821-.126.084-.243.159-.369.235-1.014.6-2.086,1.2-3.209,1.751.452-.008.913-.025,1.366-.05.327-.008.654-.025.972-.042h.042c.05,0,.092-.008.142-.008h.042c.2-.008.419-.025.62-.042s.419-.025.62-.042h.017c.235-.134.461-.268.687-.419.117-.067.235-.134.344-.209.008,0,.017-.008.025-.017l.4-.251a36.25,36.25,0,0,0,3.31-2.4c.109-.075.209-.168.318-.26.193-.159.377-.318.561-.478.142-.126.285-.251.419-.385.134-.117.268-.251.4-.385.008-.209,0-.427-.008-.637m-10.985,6.251c-.008-.084-.008-.168-.017-.26-.134.067-.277.134-.411.193a.685.685,0,0,1-.159.075c-.318.159-.637.3-.964.452l1.173,1.064c-.017-.5-.034-1.005-.042-1.517.142-.008.276-.008.419-.008m10.985-6.251a3.271,3.271,0,0,1-.277-.318c-.05-.059-.084-.092-.142-.151v-.042c0-.268,0-.528-.008-.788-.092.109-.2.218-.31.327q-.54.566-1.181,1.131c-.209.184-.427.369-.645.553-.1.092-.209.176-.318.26-.654.536-1.357,1.056-2.1,1.567-.142.1-.285.193-.427.285-.419.285-.846.561-1.29.821-.126.084-.243.159-.369.235-1.014.6-2.086,1.2-3.209,1.751.452-.008.913-.025,1.366-.05.327-.008.654-.025.972-.042h.042c.05,0,.092-.008.142-.008h.042c.2-.008.419-.025.62-.042s.419-.025.62-.042h.017c.235-.134.461-.268.687-.419.117-.067.235-.134.344-.209.008,0,.017-.008.025-.017l.4-.251a36.25,36.25,0,0,0,3.31-2.4c.109-.075.209-.168.318-.26.193-.159.377-.318.561-.478.142-.126.285-.251.419-.385.134-.117.268-.251.4-.385.008-.209,0-.427-.008-.637m-10.985,6.251c-.008-.084-.008-.168-.017-.26-.134.067-.277.134-.411.193a.685.685,0,0,1-.159.075c-.318.159-.637.3-.964.452l1.173,1.064c-.017-.5-.034-1.005-.042-1.517.142-.008.276-.008.419-.008m10.985-6.251a3.271,3.271,0,0,1-.277-.318c-.05-.059-.084-.092-.142-.151v-.042c0-.268,0-.528-.008-.788-.092.109-.2.218-.31.327q-.54.566-1.181,1.131c-.209.184-.427.369-.645.553-.1.092-.209.176-.318.26-.654.536-1.357,1.056-2.1,1.567-.142.1-.285.193-.427.285-.419.285-.846.561-1.29.821-.126.084-.243.159-.369.235-1.014.6-2.086,1.2-3.209,1.751.452-.008.913-.025,1.366-.05.327-.008.654-.025.972-.042h.042c.05,0,.092-.008.142-.008h.042c.2-.008.419-.025.62-.042s.419-.025.62-.042h.017c.235-.134.461-.268.687-.419.117-.067.235-.134.344-.209.008,0,.017-.008.025-.017l.4-.251a36.25,36.25,0,0,0,3.31-2.4c.109-.075.209-.168.318-.26.193-.159.377-.318.561-.478.142-.126.285-.251.419-.385.134-.117.268-.251.4-.385.008-.209,0-.427-.008-.637" transform="translate(-6.351 -29.836)" fill="#017d5c"/>
          <path id="Trazado_874150" data-name="Trazado 874150" d="M92.543,227.8a.545.545,0,1,1-.545-.545.545.545,0,0,1,.545.545" transform="translate(-14.826 -36.841)" fill="#fee7d1"/>
          <path id="Trazado_874151" data-name="Trazado 874151" d="M76.052,244.911a.377.377,0,1,1-.378-.378.377.377,0,0,1,.378.378" transform="translate(-12.207 -39.642)" fill="#fee7d1"/>
          <path id="Trazado_874152" data-name="Trazado 874152" d="M62.251,228.866a.377.377,0,1,1-.378-.378.378.378,0,0,1,.378.378" transform="translate(-9.969 -37.041)" fill="#fee7d1"/>
          <path id="Trazado_874153" data-name="Trazado 874153" d="M64.706,202.55a.829.829,0,1,1-.829-.829.829.829,0,0,1,.829.829" transform="translate(-10.221 -32.702)" fill="#fee7d1"/>
          <path id="Trazado_874154" data-name="Trazado 874154" d="M65.18,195.759a.428.428,0,1,1-.428-.427.428.428,0,0,1,.428.427" transform="translate(-10.428 -31.666)" fill="#fee7d1"/>
          <path id="Trazado_874155" data-name="Trazado 874155" d="M70.792,198.356a.629.629,0,1,1-.629-.628.629.629,0,0,1,.629.628" transform="translate(-11.272 -32.054)" fill="#fee7d1"/>
          <path id="Trazado_874156" data-name="Trazado 874156" d="M72.669,192.033a.1.1,0,1,1-.1-.1.1.1,0,0,1,.1.1" transform="translate(-11.747 -31.114)" fill="#fee7d1"/>
          <path id="Trazado_874157" data-name="Trazado 874157" d="M78.143,196.643a.477.477,0,1,1-.477-.477.477.477,0,0,1,.477.477" transform="translate(-12.513 -31.801)" fill="#fee7d1"/>
          <path id="Trazado_874158" data-name="Trazado 874158" d="M77.195,201.974a.391.391,0,1,1-.391-.391.391.391,0,0,1,.391.391" transform="translate(-12.387 -32.679)" fill="#fee7d1"/>
          <path id="Trazado_874159" data-name="Trazado 874159" d="M49.925,226.161a.391.391,0,1,1-.391-.391.391.391,0,0,1,.391.391" transform="translate(-7.967 -36.6)" fill="#fee7d1"/>
          <path id="Trazado_874160" data-name="Trazado 874160" d="M85.857,223.858a.391.391,0,1,1-.391-.391.391.391,0,0,1,.391.391" transform="translate(-13.792 -36.227)" fill="#fee7d1"/>
          <path id="Trazado_874161" data-name="Trazado 874161" d="M73.175,209.3a.577.577,0,1,1-.577-.577.578.578,0,0,1,.577.577" transform="translate(-11.675 -33.837)" fill="#fee7d1"/>
          <path id="Trazado_874162" data-name="Trazado 874162" d="M85.11,195.7a.736.736,0,1,1-.736-.736.736.736,0,0,1,.736.736" transform="translate(-13.559 -31.606)" fill="#fee7d1"/>
          <path id="Trazado_874163" data-name="Trazado 874163" d="M80.206,232.888a.736.736,0,1,1-.736-.736.736.736,0,0,1,.736.736" transform="translate(-12.764 -37.635)" fill="#fee7d1"/>
          <path id="Trazado_874164" data-name="Trazado 874164" d="M64.1,242.355a1.308,1.308,0,1,1-1.307-1.307,1.308,1.308,0,0,1,1.307,1.307" transform="translate(-9.968 -39.077)" fill="#fee7d1"/>
          <path id="Trazado_874165" data-name="Trazado 874165" d="M65.18,206.838a.428.428,0,1,1-.428-.427.428.428,0,0,1,.428.427" transform="translate(-10.428 -33.462)" fill="#fee7d1"/>
          <path id="Trazado_874166" data-name="Trazado 874166" d="M90.8,218.641a.428.428,0,1,1-.427-.427.427.427,0,0,1,.427.427" transform="translate(-14.582 -35.375)" fill="#fee7d1"/>
          <path id="Trazado_874167" data-name="Trazado 874167" d="M54.314,203.63a.895.895,0,1,1-.895-.895.895.895,0,0,1,.895.895" transform="translate(-8.515 -32.866)" fill="#fee7d1"/>
          <path id="Trazado_874168" data-name="Trazado 874168" d="M49.454,208.647a.4.4,0,1,1-.4-.4.4.4,0,0,1,.4.4" transform="translate(-7.886 -33.759)" fill="#fee7d1"/>
          <path id="Trazado_874169" data-name="Trazado 874169" d="M70.973,235.682a.4.4,0,1,1-.4-.4.4.4,0,0,1,.4.4" transform="translate(-11.374 -38.142)" fill="#fee7d1"/>
          <path id="Trazado_874170" data-name="Trazado 874170" d="M54.1,209.982a.627.627,0,1,1-.627-.627.627.627,0,0,1,.627.627" transform="translate(-8.567 -33.939)" fill="#fee7d1"/>
          <path id="Trazado_874171" data-name="Trazado 874171" d="M71.729,227.811a.484.484,0,1,1-.483-.483.484.484,0,0,1,.483.483" transform="translate(-11.471 -36.853)" fill="#fee7d1"/>
          <path id="Trazado_874172" data-name="Trazado 874172" d="M50.467,236.9a.484.484,0,1,1-.483-.483.484.484,0,0,1,.483.483" transform="translate(-8.024 -38.326)" fill="#fee7d1"/>
          <path id="Trazado_874173" data-name="Trazado 874173" d="M61.79,208.647a.4.4,0,1,1-.4-.4.4.4,0,0,1,.4.4" transform="translate(-9.886 -33.759)" fill="#fee7d1"/>
          <path id="Trazado_874174" data-name="Trazado 874174" d="M48.576,214.348a.627.627,0,1,1-.627-.627.627.627,0,0,1,.627.627" transform="translate(-7.672 -34.647)" fill="#fee7d1"/>
          <path id="Trazado_874175" data-name="Trazado 874175" d="M72.3,202.357a.825.825,0,1,1-.824-.824.824.824,0,0,1,.824.824" transform="translate(-11.453 -32.671)" fill="#fee7d1"/>
          <path id="Trazado_874176" data-name="Trazado 874176" d="M64.07,130.813a.587.587,0,1,1-.587-.587.588.588,0,0,1,.587.587" transform="translate(-10.196 -21.111)" fill="#270407"/>
          <path id="Trazado_874177" data-name="Trazado 874177" d="M60.522,141.653a.587.587,0,1,1-.587-.587.588.588,0,0,1,.587.587" transform="translate(-9.621 -22.869)" fill="#270407"/>
          <path id="Trazado_874178" data-name="Trazado 874178" d="M104.9,206.121c-.416-.266-.806-.54-1.188-.806-4.785-3.406-5.89-5.15-5.89-5.15a24.265,24.265,0,0,0,7-7.493c-1.063,1.96-3.872,8.183.075,13.45" transform="translate(-15.858 -31.234)" fill="#ff9570"/>
        </g>
      </g>
    </g>
  </g>
</svg>
