<svg xmlns="http://www.w3.org/2000/svg" xmlns:xlink="http://www.w3.org/1999/xlink" width="254" height="204" viewBox="0 0 254 204">
  <defs>
    <clipPath id="clip-path">
      <rect id="Rectángulo_401578" data-name="Rectángulo 401578" width="254" height="204" rx="12" transform="translate(831.051 1300)" fill="#142c82"/>
    </clipPath>
    <clipPath id="clip-path-2">
      <rect id="Rectángulo_401577" data-name="Rectángulo 401577" width="258.942" height="417.152" fill="none"/>
    </clipPath>
  </defs>
  <g id="Grupo_1100170" data-name="Grupo 1100170" transform="translate(-831.051 -1300)">
    <rect id="Rectángulo_401435" data-name="Rectángulo 401435" width="254" height="185" rx="12" transform="translate(831.051 1319)" fill="#142c82"/>
    <g id="Enmascarar_grupo_1098695" data-name="Enmascarar grupo 1098695" clip-path="url(#clip-path)">
      <g id="Grupo_1099957" data-name="Grupo 1099957" transform="translate(808.08 1300)">
        <g id="Grupo_1099956" data-name="Grupo 1099956" clip-path="url(#clip-path-2)">
          <path id="Trazado_874797" data-name="Trazado 874797" d="M137.835,94.663s-3.656,2.165-9.491,5.014a30.168,30.168,0,0,0-4.659,2.911,36.43,36.43,0,0,0-5.5,5.088l-1.016-2.6-.611-1.59s.318-.295.794-.771c.051-.06.123-.123.185-.183a31.662,31.662,0,0,0,2.628-3.045c.2-.258.38-.525.55-.782a10.274,10.274,0,0,0,.845-1.541c.037-.111.074-.209.109-.306.051-.135.086-.258.123-.39s.049-.269.062-.392a10.531,10.531,0,0,0-1.237-3.792v-.012c-.367-.806-.806-1.687-1.272-2.616-2.922-5.821-7.4-13.281-7.4-13.281s-.123.109-.367.293a19.867,19.867,0,0,1-3.217,1.957c-.258.135-.538.269-.833.4-3.693,1.7-9.8,3.558-18.564,3.326A62,62,0,0,1,66.389,77.7c-.318-.135-.6-.258-.856-.378-.685-.306-1.2-.564-1.518-.735l-.4-.218c-.121.244-.267.525-.416.843-.121.22-.232.464-.353.722-.16.318-.306.648-.478,1s-.33.722-.513,1.1c-.71,1.529-1.492,3.266-2.226,4.893-.123.256-.22.5-.343.745,0,.012-.012.025-.012.037-.232.538-.464,1.063-.685,1.553-.318.734-.611,1.395-.856,1.957-.121.281-.232.538-.33.759s-.183.416-.258.575c-.135.318-.22.5-.22.5-.1-.172-.183-.343-.281-.49-.5-.88-.991-1.418-1.235-.917-.453.905-4.586,7.618-7.3,11.972-.185.318-.38.624-.564.917-1.04,1.687-1.762,2.838-1.762,2.838a29.079,29.079,0,0,0-2.653-4.832,57.682,57.682,0,0,0-4.928-6.42c-5.835-6.641-8.133-8.268-8.133-8.268s.671-1.186,1.76-3.057c.135-.258.295-.513.453-.794,1.174-2.019,2.727-4.649,4.428-7.411,3.656-5.956,11.654-18.162,14.1-19.924s9.625-1.625,16.4-2.714q1.191-.184,2.164-.4c.355-.074.685-.146,1-.232a17.285,17.285,0,0,0,5.81-2.532c.244-.172.5-.343.759-.5.55-.392,1.137-.794,1.785-1.211a10.148,10.148,0,0,0,6.91,4.073c4.61.538,7.729-3.119,7.729-3.119s.831.527,2.249,1.3c.246.135.5.269.784.416v.012c.39.2.819.416,1.272.624.269.135.55.269.831.4.6.269,1.235.562,1.92.843.392.172.808.343,1.223.5a42.125,42.125,0,0,0,7.179,2.14c8.268,1.625,10.7,4.194,15.728,12.193,3.632,5.8,8.99,18.026,11.654,24.3q.184.459.367.88c.784,1.873,1.26,3.022,1.26,3.022" transform="translate(28.588 44.762)" fill="#bd26b7"/>
          <path id="Trazado_874798" data-name="Trazado 874798" d="M52.847,63.736a.971.971,0,1,1-.892-1.126,1.017,1.017,0,0,1,.892,1.126" transform="translate(48.412 59.531)" fill="#fee9ee"/>
          <path id="Trazado_874799" data-name="Trazado 874799" d="M52.916,70.014c0,.012-.012.023-.012.037-.232.538-.464,1.063-.685,1.553-.318.734-.613,1.395-.856,1.957-.123.281-.232.538-.33.759s-.183.416-.258.574c-.135.318-.22.5-.22.5-.1-.172-.183-.341-.281-.488-.5-.882-.991-1.42-1.235-.919-.453.905-4.586,7.62-7.3,11.974-.183.318-.378.622-.562.917-1.04,1.687-1.762,2.837-1.762,2.837a29.028,29.028,0,0,0-2.653-4.83,162,162,0,0,1,13.121-21.34Z" transform="translate(34.954 60.422)" fill="#b21db2"/>
          <path id="Trazado_874800" data-name="Trazado 874800" d="M81.529,78.177a36.548,36.548,0,0,0-5.5,5.088l-1.014-2.6-.613-1.59s.318-.295.8-.771a2.324,2.324,0,0,1,.183-.183,31.929,31.929,0,0,0,2.63-3.045c.2-.258.378-.527.55-.782a10.35,10.35,0,0,0,.843-1.541,35.675,35.675,0,0,0,2.128,5.429" transform="translate(70.742 69.172)" fill="#b21db2"/>
          <path id="Trazado_874801" data-name="Trazado 874801" d="M115.037,22.973c-.269,11.118-4.61,19.934-10.579,21.292s-9.758,4.294-11.789,5.2c-1.467.648-16.02,4.83-24.044,7.142-3.106.88-5.234,1.479-5.234,1.479-5.956.148-18.174-1.945-23.322-8.621C35.495,43.519,36.5,34.3,42.574,24.709q1.138-1.814,2.521-3.632C53.349,10.23,66.226,1.962,81.148.47c14.906-1.492,20.057.685,24.4,5.014s9.76,6.373,9.491,17.489" transform="translate(35.39 0.001)" fill="#bd26b7"/>
          <path id="Trazado_874802" data-name="Trazado 874802" d="M70.165,42.385l-1.541,2.177c-3.106.88-5.234,1.479-5.234,1.479-5.956.148-18.174-1.943-23.322-8.621-4.575-5.944-3.57-15.166,2.507-24.754C52.922,40.148,70.165,42.385,70.165,42.385" transform="translate(35.389 12.043)" fill="#b21db2"/>
          <path id="Trazado_874803" data-name="Trazado 874803" d="M111.714,33.572l-.029,0a.3.3,0,0,1-.275-.332l.611-6.436a.3.3,0,0,1,.332-.275.306.306,0,0,1,.277.334l-.611,6.434a.307.307,0,0,1-.3.277" transform="translate(105.933 25.222)" fill="#ff4f76"/>
          <path id="Trazado_874804" data-name="Trazado 874804" d="M113.617,33.473a.257.257,0,0,1-.066-.008.305.305,0,0,1-.232-.365c.324-1.43,1.381-6.106,1.432-6.262a.306.306,0,0,1,.581.189c-.057.2-.878,3.82-1.416,6.208a.306.306,0,0,1-.3.238" transform="translate(107.742 25.321)" fill="#ff4f76"/>
          <path id="Trazado_874805" data-name="Trazado 874805" d="M115.754,33.27a.318.318,0,0,1-.125-.025.3.3,0,0,1-.154-.4l2.437-5.474a.306.306,0,1,1,.56.248l-2.439,5.474a.3.3,0,0,1-.279.179" transform="translate(109.774 25.85)" fill="#ff4f76"/>
          <path id="Trazado_874806" data-name="Trazado 874806" d="M100.692,33.573a.371.371,0,0,1-.078-.01.309.309,0,0,1-.218-.373l1.678-6.436a.3.3,0,0,1,.375-.218.309.309,0,0,1,.218.373l-1.678,6.436a.306.306,0,0,1-.3.228" transform="translate(95.452 25.222)" fill="#ff4f76"/>
          <path id="Trazado_874807" data-name="Trazado 874807" d="M98.941,33.041a.3.3,0,0,1-.3-.275c-.222-2.152-.609-5.677-.693-5.972a.277.277,0,0,1,.1-.394.338.338,0,0,1,.441.117c.049.074.142.215.761,6.186a.306.306,0,0,1-.273.336l-.031,0" transform="translate(93.086 25.063)" fill="#ff4f76"/>
          <path id="Trazado_874808" data-name="Trazado 874808" d="M102.959,33.492a.306.306,0,0,1-.269-.449l3.045-5.695a.3.3,0,0,1,.414-.127.308.308,0,0,1,.127.414l-3.047,5.695a.3.3,0,0,1-.269.162" transform="translate(97.608 25.849)" fill="#ff4f76"/>
          <path id="Trazado_874809" data-name="Trazado 874809" d="M93.522,146.791c-.429,1.871-1,4.378-1.65,7.265-2.374,10.443-5.86,26.024-7.866,36.188-3.254,16.473-15.459,64.267-15.459,64.267-8.133,2.838-18.5.2-18.5.2.414-6.508-.808-40.053,1.089-59.376s9.087-29.278,9.087-31.114c0-.977-.232-3.18-.455-7.031-.148-2.63-.293-6.042-.341-10.336,17.659,1.114,28.518.527,34.1-.061" transform="translate(47.573 139.576)" fill="#fee9ee"/>
          <path id="Trazado_874810" data-name="Trazado 874810" d="M69.979,149.64c-.856,2.6-2.335,7.082-4.171,12.413-2.043,5.931-4.538,12.9-7.056,19.372-6.1,15.654-27.261,79.507-27.261,79.507-7.924,2.653-18.086.416-18.086.416s-1.223-39.858,4.67-61a312.111,312.111,0,0,1,14.848-40.675s-.074-5.638.49-12.671c.146-1.822.33-3.744.574-5.687,4.893,1.773,17.037,5.638,35.993,8.328" transform="translate(12.645 134.367)" fill="#fee9ee"/>
          <path id="Trazado_874811" data-name="Trazado 874811" d="M56.022,38.271c-1.9,7.05-4.744,8.27-8.541,11.116S40.025,55.9,41.652,61.046s9.76,4.339,14.37,2.848,12.066-2.577,14.641-1.627,11.116,2.3,15.047.813,8.406.677,13.014-.408,8.949-4.337,7.593-9.76-4.744-7.727-7.456-11.929-6.1-13.014-6.1-13.014Z" transform="translate(39.228 26.594)" fill="#16023c"/>
          <path id="Trazado_874812" data-name="Trazado 874812" d="M124.279,226.655a42.012,42.012,0,0,1-4.7.673c-5.577.587-16.438,1.174-34.1.061-3-.2-6.176-.427-9.577-.734-5.332-.464-10.261-1.04-14.8-1.687-18.956-2.69-31.1-6.555-35.993-8.328-1.65-.6-2.5-.954-2.5-.954,0-24,7.056-54.362,20.472-73.76A135.066,135.066,0,0,1,64.413,117.9c.209-.183.416-.367.624-.538.123-.1.232-.207.343-.293,3.008-2.593,5.1-4.122,5.722-4.563.135-.1.2-.146.2-.146s.072-.39.146-1.089a40.291,40.291,0,0,0-.146-10.408,138.065,138.065,0,0,0-3.95-15.593c-2.838-2.212-3.3-5.821-3.352-7.521-.012-.146-.012-.281-.012-.392,0-.367.012-.574.012-.574s.086-.183.22-.5c.074-.16.158-.355.258-.575s.207-.476.33-.759c.244-.562.538-1.223.856-1.957.22-.488.453-1.014.685-1.553.123-.257.232-.513.355-.782.734-1.627,1.516-3.363,2.224-4.893.185-.378.355-.757.515-1.1s.318-.685.476-1c.123-.258.232-.5.355-.722.146-.318.295-.6.416-.843,0,0,.135.072.4.22,1.945,1.026,10.983,5.38,24.949,5.759,15.862.416,22.979-5.979,22.979-5.979s10.164,16.937,9.906,19.7c-.012.123-.037.258-.06.392s-.074.256-.123.39a8.316,8.316,0,0,1-.954,1.847c-.172.257-.355.525-.55.782a31.653,31.653,0,0,1-2.63,3.045c-.06.06-.135.123-.183.183-.476.478-.794.771-.794.771s-7.107,20.2-7.474,25.119a3.086,3.086,0,0,0,.014.771,1.324,1.324,0,0,0,.072.269c.025.062.037.135.074.209.355,1.112,1.284,3.2,2.556,6.237.049.135.109.269.172.416.1.232.2.464.293.71A181.3,181.3,0,0,1,130.6,162.815c4.684,28.264-6.323,63.84-6.323,63.84" transform="translate(21.512 59.039)" fill="#313dc3"/>
          <path id="Trazado_874813" data-name="Trazado 874813" d="M144.332,59.443a98,98,0,0,1-9.247,6.323c-.757.464-1.479.868-2.163,1.235-3.681,1.968-6.432,2.788-7.8,4.048-1.625,1.492-2.444,4.343-2.983,9.491s-3.389,23.311-8,32.934-11.654,18.04-16,17.9a11.419,11.419,0,0,1-1.8-.172c-3.229-.562-5.283-2.481-8.512-6.873-3.8-5.16-9.624-13.159-12.6-24.142a36.663,36.663,0,0,1,6.042-5.49A28.787,28.787,0,0,1,85.4,92.194c5.833-2.848,9.489-5.014,9.489-5.014s2.716,8.952,2.85,8.268S109.123,72,109.123,72a25.5,25.5,0,0,0-.821-5.968c-.1-.378-.207-.771-.3-1.174-.71-2.788-1.407-6.079-1.994-8.316-.685-2.581,2.433-1.627,3.925,0s6.237,5.418,8.952,5.97c2.716.536,10.164-3.8,11.387-3.939.378-.037,1.92.023,3.839.146.513.025,1.065.06,1.627.1,1.137.074,2.323.16,3.449.232.538.049,1.063.086,1.553.123,2.054.146,3.6.269,3.6.269" transform="translate(71.535 52.245)" fill="#ffa581"/>
          <path id="Trazado_874814" data-name="Trazado 874814" d="M80.533,127.579a1.566,1.566,0,0,1-2.128.355,3.489,3.489,0,0,1-.587-.355.674.674,0,0,1-.355.4c-.365.172-1.186.146-3.338-.16-.416-.06-.88-.133-1.393-.207V127.6a1.11,1.11,0,0,1-.2-.025,12.947,12.947,0,0,0-2.544-.172,9.9,9.9,0,0,0-1.639.183c-2.238.416-4.171,1.407-7.887,1.859-5.687.673-9.625-2.983-10.579-3.4s-7.045-6.225-13.147-16.533S25.89,90.8,25.89,87.013c0-3.767,4.428-13.6,8.1-19.959.014-.037.037-.06.049-.1,0,0,2.3,1.627,8.133,8.268s7.583,11.251,7.583,11.251l-1.762,2.3s11.668,26.709,12.341,27.333,5.283-1.444,11.52,2.091,9.625,8,8.683,9.38" transform="translate(24.618 63.665)" fill="#ffa581"/>
          <path id="Trazado_874815" data-name="Trazado 874815" d="M129.382,59.443a98.008,98.008,0,0,1-9.247,6.323c-.757.464-1.479.868-2.163,1.235-4.977-.868-17.427-2.825-24.924-2.14-.71-2.788-1.407-6.079-1.994-8.316-.685-2.581,2.433-1.627,3.925,0s6.237,5.418,8.952,5.97c2.716.536,10.164-3.8,11.387-3.939.378-.037,1.92.023,3.839.146.513.025,1.065.06,1.627.1,1.137.074,2.323.16,3.449.232.538.049,1.063.086,1.553.123,2.054.146,3.6.269,3.6.269" transform="translate(86.486 52.245)" fill="#ff9570"/>
          <path id="Trazado_874816" data-name="Trazado 874816" d="M53.885,29.405a7.01,7.01,0,0,0,.636-.382l-3.89,1.467a21.329,21.329,0,0,0,3.254-1.085" transform="translate(48.143 27.597)" fill="#e57853"/>
          <path id="Trazado_874817" data-name="Trazado 874817" d="M82.626,26.123c-1.219-1.356-7.727-6.508-15.86-4.881S50.5,31.816,50.632,33.308s0,4.879,0,4.879l3.89-1.465c1.194-.784,2.889-2.195,2.889-2.195a10.341,10.341,0,0,0,6.986-2.3c3.461-2.712,5.62-7.862,5.62-7.862a11.426,11.426,0,0,0,5.6,4.405,18.215,18.215,0,0,0,7.958,1.016,5.278,5.278,0,0,0-.948-3.66" transform="translate(48.142 19.899)" fill="#16023c"/>
          <path id="Trazado_874818" data-name="Trazado 874818" d="M87.9,43.065c-.049,1.713-.146,3.461-.318,5.137-.367,3.572-1.089,6.873-2.435,9.05a17.764,17.764,0,0,1-5.16,5.65,10.419,10.419,0,0,0-1.052.931,6.283,6.283,0,0,0-.5.513c-.06.074-.135.146-.2.232a7.3,7.3,0,0,0-1.383,4.489,12.312,12.312,0,0,0,.16,2.152s-3.119,3.658-7.729,3.119a10.142,10.142,0,0,1-6.91-4.073,13.954,13.954,0,0,0,.671-5.148c0-3.656-1.894-5.552-4.6-9.356a14.046,14.046,0,0,1-2.714-7.448c-4.208.942-9.087-5.295-8.4-9.77.55-3.658,3.106-4.686,5.209-3.291a4.844,4.844,0,0,1,1.3,1.26.1.1,0,0,0,.037-.012,20.277,20.277,0,0,0,3.215-1.065c.086-.049.183-.1.295-.17a2.058,2.058,0,0,0,.341-.22c.209-.135.429-.283.661-.453.392-.283.782-.587,1.137-.868.538-.417.954-.759,1.063-.845l.025-.023a10.354,10.354,0,0,0,6.982-2.312c3.463-2.7,5.626-7.852,5.626-7.852.135.207.269.4.416.587a2.357,2.357,0,0,0,.209.269.579.579,0,0,0,.074.1c.17.209.341.39.513.576A9.632,9.632,0,0,0,75.8,25.441a12.892,12.892,0,0,0,4.782,2.214,16.6,16.6,0,0,0,2.483.429.249.249,0,0,0,.086.012c.353.037.7.06,1.014.072a16.473,16.473,0,0,0,2.6-.06s.954,0,1.089,6.543c.049,2.372.111,5.343.037,8.414" transform="translate(44.943 21.575)" fill="#ffa581"/>
          <path id="Trazado_874819" data-name="Trazado 874819" d="M44.136,202.629V222.76s-2.128.146-5.443.355c-11.935.734-39.319,2.261-38.681.671.817-2.043,26.036-20.741,26.036-20.741a44.76,44.76,0,0,0,13.221.636,24.417,24.417,0,0,0,4.867-1.052" transform="translate(0 192.67)" fill="#16023c"/>
          <path id="Trazado_874820" data-name="Trazado 874820" d="M93.6,222.543H50.116s-.392-13.832.012-20.338c0,0,.817.207,2.187.453,3.486.6,10.484,1.393,16.315-.65,1.026,1.211,24.975,20.535,24.975,20.535" transform="translate(47.491 192.079)" fill="#16023c"/>
          <path id="Trazado_874821" data-name="Trazado 874821" d="M52.641,36.88a.461.461,0,0,1-.417-.267,20.306,20.306,0,0,0-3.632-5.269.459.459,0,0,1,.636-.661,20.833,20.833,0,0,1,3.83,5.548.458.458,0,0,1-.224.609.475.475,0,0,1-.191.041" transform="translate(46.07 29.053)" fill="#ff8661"/>
          <path id="Trazado_874822" data-name="Trazado 874822" d="M67.2,42a.465.465,0,0,1-.162-.029l-5.125-1.927a.459.459,0,0,1,.324-.858l4.387,1.65c-1.764-11.27-1.709-11.436-1.664-11.572a.459.459,0,0,1,.893.181c.029.6,1.089,7.491,1.8,12.027a.457.457,0,0,1-.164.425.452.452,0,0,1-.289.1" transform="translate(58.59 27.526)" fill="#ff8661"/>
          <path id="Trazado_874823" data-name="Trazado 874823" d="M64.838,38.4a8.965,8.965,0,0,1-4.725-1.387.459.459,0,0,1,.521-.757A7.678,7.678,0,0,0,68.1,36.7a.459.459,0,0,1,.41.821,8.134,8.134,0,0,1-3.673.88" transform="translate(56.971 34.398)" fill="#f2513b"/>
          <path id="Trazado_874824" data-name="Trazado 874824" d="M54.694,30.171a6.565,6.565,0,0,1,8.332-2.483.465.465,0,0,1-.174.892,13.673,13.673,0,0,0-3.96.435,12.369,12.369,0,0,0-3.529,1.756.464.464,0,0,1-.669-.6" transform="translate(51.949 25.764)" fill="#16023c"/>
          <path id="Trazado_874825" data-name="Trazado 874825" d="M63.561,27.435c2.5-1.206,6.044-.8,7.751,1.539a.471.471,0,0,1-.554.714,14.266,14.266,0,0,0-3.4-.936c-1.159-.176-2.39-.248-3.652-.425a.476.476,0,0,1-.146-.892" transform="translate(60.195 25.459)" fill="#16023c"/>
          <path id="Trazado_874826" data-name="Trazado 874826" d="M79.761,51.393a.467.467,0,0,1-.248-.072c-2.226-1.432-8.129-7.522-11.161-16.294a.458.458,0,1,1,.866-.3c2.954,8.545,8.648,14.442,10.79,15.819a.459.459,0,0,1-.248.845" transform="translate(64.969 32.728)" fill="#2a156b"/>
          <path id="Trazado_874827" data-name="Trazado 874827" d="M72,50.142a.445.445,0,0,1-.232-.064c-.109-.064-2.7-1.676-4.458-9.167A.459.459,0,1,1,68.2,40.7c1.652,7.029,4.013,8.578,4.038,8.592a.46.46,0,0,1-.242.851" transform="translate(63.987 38.362)" fill="#2a156b"/>
          <path id="Trazado_874828" data-name="Trazado 874828" d="M43.351,48.785a.459.459,0,0,1-.127-.9c.078-.029,9.762-4.524,12.407-11.619a.459.459,0,1,1,.86.32C53.675,44.142,43.573,48.74,43.478,48.768a.484.484,0,0,1-.127.018" transform="translate(40.784 34.2)" fill="#2a156b"/>
          <path id="Trazado_874829" data-name="Trazado 874829" d="M47.32,52.73a.462.462,0,0,1-.439-.324c-.948-3.075.913-5.234,3.27-7.967a34.515,34.515,0,0,0,4.495-6.147.458.458,0,1,1,.8.439,35.246,35.246,0,0,1-4.6,6.307c-2.257,2.618-3.888,4.508-3.088,7.1a.461.461,0,0,1-.3.575.563.563,0,0,1-.137.02" transform="translate(44.337 36.182)" fill="#2a156b"/>
          <path id="Trazado_874830" data-name="Trazado 874830" d="M52.472,49.785a.456.456,0,0,1-.433-.312c-.041-.121-.975-3.026.394-9.048a.458.458,0,0,1,.893.2c-1.3,5.734-.427,8.527-.417,8.554a.46.46,0,0,1-.437.6" transform="translate(49.15 38.099)" fill="#2a156b"/>
          <path id="Trazado_874831" data-name="Trazado 874831" d="M52.849,32.723a.459.459,0,0,1-.146-.893A24.246,24.246,0,0,0,64.16,22.668a.458.458,0,0,1,.778.484A24.728,24.728,0,0,1,52.995,32.7a.478.478,0,0,1-.146.023" transform="translate(49.815 21.349)" fill="#2a156b"/>
          <path id="Trazado_874832" data-name="Trazado 874832" d="M71.023,27.9c-1.128,0-5.81-.312-10.156-5.174a.459.459,0,0,1,.685-.613c4.563,5.107,9.608,4.871,9.661,4.863a.459.459,0,0,1,.059.917c-.023,0-.109.006-.248.006" transform="translate(57.765 20.886)" fill="#2a156b"/>
          <path id="Trazado_874833" data-name="Trazado 874833" d="M47.942,33.064a19.489,19.489,0,0,1-7.409-1.736.458.458,0,0,1-.246-.6.453.453,0,0,1,.6-.244c6.19,2.591,10.78,2.136,13.644-1.354,1.885-2.3,2.476-9.477-2.22-14.308a.458.458,0,1,1,.657-.638c4.895,5.031,4.608,12.679,2.271,15.527a8.979,8.979,0,0,1-7.3,3.354" transform="translate(38.272 13.354)" fill="#b21db2"/>
          <path id="Trazado_874834" data-name="Trazado 874834" d="M54.156,28.84a.454.454,0,0,1-.423-.281.46.46,0,0,1,.248-.6A13.083,13.083,0,0,0,61.621,16.05a14.491,14.491,0,0,0-3.065-8.714.458.458,0,1,1,.687-.607,15.153,15.153,0,0,1,3.3,9.313,14.04,14.04,0,0,1-8.209,12.764.5.5,0,0,1-.176.033" transform="translate(51.058 6.252)" fill="#b21db2"/>
          <path id="Trazado_874835" data-name="Trazado 874835" d="M64.422,23.737a6.981,6.981,0,0,1-3.156-.757.458.458,0,1,1,.41-.819c4.389,2.195,8.968-1.563,10.821-4.448a16.6,16.6,0,0,0,2.05-6.828.482.482,0,0,1,.486-.431.461.461,0,0,1,.431.486,17.284,17.284,0,0,1-2.195,7.269c-1.592,2.478-5.049,5.529-8.847,5.529" transform="translate(58.013 9.939)" fill="#b21db2"/>
          <path id="Trazado_874836" data-name="Trazado 874836" d="M71.45,24.826a10.724,10.724,0,0,1-6.887-2.69.458.458,0,0,1,.587-.7c4.46,3.716,9.436,2.833,12.047.039a12.565,12.565,0,0,0,3.2-6.409.458.458,0,0,1,.911.1A13.282,13.282,0,0,1,77.867,22.1a8.777,8.777,0,0,1-6.416,2.729" transform="translate(61.233 13.935)" fill="#b21db2"/>
          <path id="Trazado_874837" data-name="Trazado 874837" d="M73.408,72.3c-20.779,0-27.091-7.009-27.353-7.312a.458.458,0,0,1,.693-.6c.062.07,6.371,7,26.674,7l.576,0c20.687-.133,25.265-6.576,25.31-6.641a.458.458,0,0,1,.765.505c-.185.283-4.785,6.918-26.069,7.052-.2,0-.4,0-.6,0" transform="translate(43.686 61.076)" fill="#1e30af"/>
          <path id="Trazado_874838" data-name="Trazado 874838" d="M60.812,84.294A22.212,22.212,0,0,1,47.2,78.673c-4.561-4.032-3.783-8.406-3.449-9.044a.459.459,0,0,1,.813.425c-.238.455-.87,4.3,3.244,7.934,4.274,3.779,10.033,5.552,13.521,5.377a.449.449,0,0,1,.482.433.459.459,0,0,1-.433.482c-.183.01-.373.014-.57.014" transform="translate(41.348 65.974)" fill="#1e30af"/>
          <path id="Trazado_874839" data-name="Trazado 874839" d="M73.138,48.737c-1.309,1.92-4.023,4.257-9.345,3.939-5.845-.343-8.315-3.143-9.331-4.979-.256.16-.513.33-.757.5,1.137,2.043,3.851,5.027,10.039,5.394.343.012.673.023.991.023,5.088,0,7.815-2.444,9.185-4.452v-.012c-.281-.146-.538-.281-.782-.416" transform="translate(51.066 45.353)" fill="#b21db2"/>
          <path id="Trazado_874840" data-name="Trazado 874840" d="M52.967,99.028a9.7,9.7,0,0,0-1.639.183,15.207,15.207,0,0,0-7.056-1.481.489.489,0,0,1-.478-.439.456.456,0,0,1,.441-.478,16.3,16.3,0,0,1,8.732,2.214" transform="translate(41.641 92.044)" fill="#ff8661"/>
          <path id="Trazado_874841" data-name="Trazado 874841" d="M53.789,100.917v-.012a15.823,15.823,0,0,0-7.634-4.965.465.465,0,0,1-.33-.564.453.453,0,0,1,.55-.33,17.165,17.165,0,0,1,8.806,6.079c-.416-.062-.882-.135-1.393-.209" transform="translate(43.56 90.362)" fill="#ff8661"/>
          <path id="Trazado_874842" data-name="Trazado 874842" d="M57.879,102.325a3.488,3.488,0,0,1-.587-.355.675.675,0,0,1-.355.4l-.086-.269c-.023-.1-.708-3.718-9.1-7.335a.446.446,0,0,1-.232-.6.457.457,0,0,1,.6-.246c8.941,3.855,9.6,7.815,9.625,7.987Z" transform="translate(45.144 89.272)" fill="#ff8661"/>
          <path id="Trazado_874843" data-name="Trazado 874843" d="M111.446,56.979A83.8,83.8,0,0,1,101.4,62.041a.413.413,0,0,1-.172.037.459.459,0,0,1-.427-.293.477.477,0,0,1,.258-.6,81.047,81.047,0,0,0,8.755-4.3c.515.023,1.065.06,1.627.1" transform="translate(95.824 54.085)" fill="#ff8661"/>
          <path id="Trazado_874844" data-name="Trazado 874844" d="M114.6,57.173a101.266,101.266,0,0,1-11.227,5.919.49.49,0,0,1-.2.037.453.453,0,0,1-.183-.868,111.471,111.471,0,0,0,10.053-5.211c.538.049,1.063.086,1.553.123" transform="translate(97.673 54.246)" fill="#ff8661"/>
          <path id="Trazado_874845" data-name="Trazado 874845" d="M33.769,154.7a8.8,8.8,0,0,1-5.65-1.908.457.457,0,0,1-.062-.646.462.462,0,0,1,.646-.06,8.635,8.635,0,0,0,6.789,1.533.454.454,0,0,1,.55.343.459.459,0,0,1-.343.55,9.273,9.273,0,0,1-1.929.187" transform="translate(26.577 144.512)" fill="#fedae4"/>
          <path id="Trazado_874846" data-name="Trazado 874846" d="M67.479,154.775a6.6,6.6,0,0,1-3.673-1.03.461.461,0,0,1-.131-.636.454.454,0,0,1,.634-.131c2.993,1.963,7.1-.006,7.138-.029a.46.46,0,0,1,.406.825,10.933,10.933,0,0,1-4.374,1" transform="translate(60.474 145.387)" fill="#fedae4"/>
          <path id="Trazado_874847" data-name="Trazado 874847" d="M47.246,84.6c-.183.318-.38.624-.564.917-2.433-4.6-8.047-14.015-15.714-19.739.135-.258.293-.513.453-.794C39.027,70.619,44.628,79.755,47.246,84.6" transform="translate(29.446 61.787)" fill="#b21db2"/>
          <path id="Trazado_874848" data-name="Trazado 874848" d="M74.877,82.347l.135,1.432-.613-1.59a33.944,33.944,0,0,0,3.609-4c3.876-3.314,10.064-7.778,16.046-8.72.123.3.244.6.367.88-8.695,1.235-18.26,10.689-19.544,12" transform="translate(70.742 66.055)" fill="#b21db2"/>
          <path id="Trazado_874849" data-name="Trazado 874849" d="M98.677,95.431c-.062-.148-.123-.283-.172-.416A77.409,77.409,0,0,1,73.762,98.4c-1-.012-2.029-.049-3.069-.109a2.028,2.028,0,0,1-.279-.025c-.382-.012-.749-.049-1.116-.074-.657-.049-1.321-.121-1.957-.2a51.062,51.062,0,0,1-22.329-7.729c-.109.086-.222.2-.345.295-.207.17-.414.353-.622.536A52.12,52.12,0,0,0,66.5,99.136c-4.524,6.457-7,15.654-7,20.07a.605.605,0,0,0,.611.611h5.027a.615.615,0,0,0,.439-.2.562.562,0,0,0,.162-.466,32.639,32.639,0,0,1-.014-3.361l5.7-1.555a.626.626,0,0,0,.453-.587c.025-4.475.406-11.606,1.309-14.038.757.023,1.49.035,2.226.035a78.66,78.66,0,0,0,23.555-3.51c-.1-.244-.2-.476-.293-.708M65.643,108.515a.368.368,0,0,0-.023.1c-.121.367-.222.734-.32,1.075a.564.564,0,0,1-.037.123,15.92,15.92,0,0,0-.685,4.586,35.316,35.316,0,0,0-.086,4.194H60.738c.207-4.586,2.727-13.33,7.167-19.3.3.037.613.06.929.086-1.163,3.117-2.14,5.8-2.862,8.071-.037.1-.074.2-.109.306a3.331,3.331,0,0,0-.109.378c-.039.135-.074.258-.111.378m5.016,4.661L65.8,114.508a30.477,30.477,0,0,1,.661-4.389c.051-.232.109-.478.183-.71.125-.4.244-.831.378-1.26,1.432-4.12,2.581-7.277,3.094-8.67l.5.035c.453.025.893.051,1.334.051-1.1,3.484-1.272,11.055-1.3,13.611" transform="translate(41.88 85.832)" fill="#1e30af"/>
          <path id="Trazado_874850" data-name="Trazado 874850" d="M65.268,95.959c.38.062.771.111,1.163.16H66.5c.55.06,1.114.123,1.689.17.782.062,1.576.111,2.4.135.685.025,1.383.037,2.091.037a69.981,69.981,0,0,0,20.008-3.387c-.035-.074-.049-.148-.072-.209a1.219,1.219,0,0,1-.074-.269,3.011,3.011,0,0,1-.012-.771,69.38,69.38,0,0,1-18.088,3.352c2.985-2.238,6.286-5.148,5.87-6.775-.183-.7-.843-1.089-1.957-1.163-5.357-.378-10.712,4.368-12.536,7.5-1.344-2.714-4.67-8.744-7.8-8.976a2.937,2.937,0,0,0-2.727,1.627,3.7,3.7,0,0,0-.55,3.387,4.372,4.372,0,0,0,1.2,1.713,43.619,43.619,0,0,1-8.121-3.718c-.072.7-.146,1.089-.146,1.089s-.06.049-.2.146a46.422,46.422,0,0,0,13.808,5.259c1.258.281,2.593.513,3.986.7m13-7.5c.613.037.845.183.856.246.22.831-2.739,3.607-6.812,6.518-1.381,0-2.727-.049-4.023-.158-.4-.037-.8-.074-1.186-.123,1.773-2.776,6.567-6.824,11.165-6.483m-22.38,1.9a2.522,2.522,0,0,1,.427-2.312c.624-.966,1.2-1.075,1.492-1.075.049,0,.086.012.123.012,2.117.146,4.842,4.549,6.42,7.595-.954-.146-1.883-.318-2.776-.513-2.384-.833-5.088-2.056-5.687-3.707" transform="translate(45.141 81.537)" fill="#1e30af"/>
          <path id="Trazado_874851" data-name="Trazado 874851" d="M54.663,37.93c-.135-1.49,8-10.439,16.132-12.064s14.641,3.523,15.862,4.879c0,0-.542-4.339-.542-5.829s-2.712-7.456-9.9-8.541-14.507.679-21.557,5.558-8.268,11.253-8.268,11.253c.814,2.575,6.963,8.35,8.27,9.625,0,0,.137-3.391,0-4.881" transform="translate(44.113 15.277)" fill="#b21db2"/>
          <path id="Trazado_874852" data-name="Trazado 874852" d="M183.09,54.436c0,3.418-23.135,6.188-51.672,6.188s-51.67-2.77-51.67-6.188l.021,1.516c0,3.418,23.135,6.188,51.672,6.188s51.672-2.77,51.672-6.188Z" transform="translate(75.828 51.761)" fill="#fedae4"/>
          <path id="Trazado_874853" data-name="Trazado 874853" d="M131.419,51.264c-28.537,0-51.672,2.77-51.672,6.188s23.135,6.188,51.672,6.188,51.672-2.77,51.672-6.188-23.135-6.188-51.672-6.188" transform="translate(75.827 48.744)" fill="#fee9ee"/>
          <path id="Trazado_874854" data-name="Trazado 874854" d="M163.075,34.419V69.275c0,3.155-17.206,5.71-38.426,5.71s-38.44-2.556-38.44-5.71V34.419c0,3.143,17.208,5.7,38.44,5.7s38.426-2.556,38.426-5.7" transform="translate(81.973 32.727)" fill="#ffecee"/>
          <path id="Trazado_874855" data-name="Trazado 874855" d="M130.471,48.612c-25.89,1.063-39-2.948-44.261-5.222v6.569c6.251,2.286,17.515,4.953,35.981,4.953q4.035,0,8.523-.185c15.642-.636,25.794-1.968,32.361-3.387V45.091c-5.675,1.332-15.593,2.825-32.6,3.521" transform="translate(81.973 41.257)" fill="#ecafea"/>
          <path id="Trazado_874856" data-name="Trazado 874856" d="M124.643,31.49c-21.225,0-38.432,2.556-38.432,5.708s17.206,5.708,38.432,5.708,38.432-2.556,38.432-5.708-17.206-5.708-38.432-5.708" transform="translate(81.974 29.942)" fill="#e57853"/>
          <path id="Trazado_874857" data-name="Trazado 874857" d="M87.857,34.95c-2.2,1.526-2.134,3.355-2.134,7.626V53.658c0,2.542-.611,5.591,1.83,5.591S90.7,58.233,90.7,53.963V45.32c0-2.745,1.767-2.521,3.172-2.277s1.912.853,1.912,5.936-.406,12.3,0,13.828S98.94,65.35,98.94,62.3V48.98c0-3.457.847-4.575,2.507-4.575s1.561,1.206,1.457,5.737,0,10.8,0,14.631-.609,6.473,2.035,6.676,2.134-3.863,2.134-10.371-.023-11.081.039-13.625,2.5-2.033,2.5.509V59.351c0,2.848-.406,6.305,1.931,6.305s2.441-2.441,2.441-6.609-.2-10.371,0-11.9,1.221-1.627,1.323.712-.1,3.761,1.83,3.863,1.728-1.625,1.83-3.252.406-2.565,1.219-2.452,1.424.113,1.424,2.655V62.2c0,4.473.611,5.185,2.441,5.185s2.134-3.512,2.033-9.432-.269-10.825.018-11.931,2.524-1,2.626,1.332,0,7.573,0,10.6.611,4.144,2.339,4.348S133,59.86,133,56V47.659c0-1.933,1.424-1.65,2.339-1.639s2.236.622,2.236,4.282V66.265c0,3.66-.915,8.847,3.457,8.847S145,71.959,145,67.587s-.183-17.692.01-19.928,2.837-2.16,3.447-1.639.406,3.367.509,7.23-.917,8.032,1.83,8.135,2.439-3.254,2.439-6.812-.3-8.769.408-8.553,1.321.316,1.321,3.672V63.824c0,2.747.1,4.372,2.339,4.169s2.136-2.846,2.035-7.421,0-10.066,0-13.523,1.422-2.973,1.422-1.028V57.952c0,3.535-.814,7.5,1.627,7.5s2.846-1.524,2.846-7.93V39.22c0-3.457-2.948-4.575-9.963-6.2s-26.639-2.156-36.5-1.994a195.167,195.167,0,0,0-26.74,2.706,24.355,24.355,0,0,0-4.169,1.219" transform="translate(81.445 29.473)" fill="#f7c3ec"/>
          <path id="Trazado_874858" data-name="Trazado 874858" d="M98.2,37.635c-3.847-2.9-4.071-10.291-4.071-10.291s3.123,3.047,4.071,5.693a6.308,6.308,0,0,1,0,4.6" transform="translate(89.504 26)" fill="#37b79f"/>
          <path id="Trazado_874859" data-name="Trazado 874859" d="M97.6,33.608c-3.9-3.824-11.393-1.963-11.393-1.963s1.091,2.425,5.7,3.293,5.7-1.33,5.7-1.33" transform="translate(81.973 29.66)" fill="#37b79f"/>
          <path id="Trazado_874860" data-name="Trazado 874860" d="M104.381,39.475c-2.335-5.049,2.719-9.869,7.686-12.132,0,0-.7,5.946-3.065,9.077s-4.622,3.055-4.622,3.055" transform="translate(98.693 25.999)" fill="#37b79f"/>
          <path id="Trazado_874861" data-name="Trazado 874861" d="M119.514,35.975s-.677-5.324,5.9-7.425c0,0-1.393,5.09-2.458,6a9.923,9.923,0,0,1-3.439,1.424" transform="translate(113.621 27.147)" fill="#37b79f"/>
          <path id="Trazado_874862" data-name="Trazado 874862" d="M103.833,34.32c.8,5.041,9.544,6.112,9.544,6.112s-2.638-4.185-5.181-5.542a5.289,5.289,0,0,0-4.362-.57" transform="translate(98.73 32.417)" fill="#37b79f"/>
          <path id="Trazado_874863" data-name="Trazado 874863" d="M99.312,32.785c-3.631-.213-7.733,2.483-10.574,5.79a8.867,8.867,0,0,0,6.943-.907c3.709-2.089,3.631-4.883,3.631-4.883" transform="translate(84.377 31.162)" fill="#37b79f"/>
          <path id="Trazado_874864" data-name="Trazado 874864" d="M116.1,33.309c-2.3,5.365,0,9.214,0,9.214s3.315-2.957,3.285-5.706a9.881,9.881,0,0,0-1.514-4.924Z" transform="translate(109.423 30.325)" fill="#37b79f"/>
          <path id="Trazado_874865" data-name="Trazado 874865" d="M111.556,26.6c-2.454.4-2.643,9.9-1.219,13.217s4.947,3.931,7.862,3.322,4.61-3.593,6.574-6.982,2.915-6.506,2.1-7.456-5.084,4.542-5.084,4.542,1.561-6.237-.066-6.643-4.339,5.966-4.339,5.966.813-6.305-.611-6.44-2.981,6.032-2.981,6.032-.137-5.9-2.238-5.558" transform="translate(104.064 24.842)" fill="#ff4f76"/>
          <path id="Trazado_874866" data-name="Trazado 874866" d="M96.481,27.08c-1.289,5.7-1.561,14.169,6.237,15.8s11.317-6.576,12.807-9.627.815-5.082-.4-5.285-4.949,5.016-4.949,5.016,1.9-5.626.474-6.307-5.287,5.765-5.287,5.765.814-6.038-1.288-6.307-3.188,6.1-3.188,6.1a19.25,19.25,0,0,0-2.169-4.27c-1.288-1.766-2.234-.884-2.234-.884" transform="translate(91.078 24.838)" fill="#ff4f76"/>
          <path id="Trazado_874867" data-name="Trazado 874867" d="M109.117,37.6a3.221,3.221,0,1,1,4.5-.708,3.221,3.221,0,0,1-4.5.708" transform="translate(102.494 30.213)" fill="#fee9ee"/>
          <path id="Trazado_874868" data-name="Trazado 874868" d="M110.239,35.274a.954.954,0,1,1,1.094-.336.825.825,0,0,1-1.094.336" transform="translate(104.596 32.034)" fill="#fedae4"/>
          <path id="Trazado_874869" data-name="Trazado 874869" d="M107.754,34.953a3.027,3.027,0,1,1,4.227-.665,3.025,3.025,0,0,1-4.227.665" transform="translate(101.275 28.032)" fill="#fee9ee"/>
          <path id="Trazado_874870" data-name="Trazado 874870" d="M108.81,32.77a.895.895,0,1,1,1.03-.314.777.777,0,0,1-1.03.314" transform="translate(103.251 29.743)" fill="#fedae4"/>
          <path id="Trazado_874871" data-name="Trazado 874871" d="M67.017,86.052a3.121,3.121,0,0,1-.386-.018.668.668,0,0,1-.384-.224.458.458,0,0,1,.129-.634.45.45,0,0,1,.425-.045c.786.1,9.077-.425,15.133-5.22,6.083-4.815,5.037-7.77,5.025-7.8a.461.461,0,0,1,.254-.6.454.454,0,0,1,.593.244c.06.142,1.4,3.562-5.3,8.871-5.938,4.7-13.586,5.421-15.488,5.421" transform="translate(62.919 67.968)" fill="#1e30af"/>
          <path id="Trazado_874872" data-name="Trazado 874872" d="M57.422,49.252,51.111,74.408l-.049.111L44.384,89.17l-.416.782c-.012-.146-.012-.281-.012-.39,0-.367.012-.576.012-.576-.1-.172-.183-.341-.281-.49L50.243,74.1l6.176-24.62c.355-.072.685-.146,1-.232" transform="translate(41.541 46.831)" fill="#1e30af"/>
          <path id="Trazado_874873" data-name="Trazado 874873" d="M85.075,87.418c-.012,0-.012.012-.025.012a.381.381,0,0,1-.2.049.475.475,0,0,1-.4-.232c-2.862-5.051-6.738-12.035-7.165-12.8l-.037-.074c-3.5-7.815-8.794-19.678-11.118-24.961.392.172.808.341,1.223.5,2.655,6.042,8.207,18.455,10.714,24.044,0,0,1.04,1.871,2.458,4.415s3.2,5.747,4.721,8.426a.449.449,0,0,1-.172.624" transform="translate(62.88 46.98)" fill="#1e30af"/>
          <path id="Trazado_874874" data-name="Trazado 874874" d="M59.184,34.328a3.242,3.242,0,0,1-5.687,2.9,3.242,3.242,0,0,1,5.687-2.9" transform="translate(50.631 31.367)" fill="#ff8661"/>
          <path id="Trazado_874875" data-name="Trazado 874875" d="M70.2,33.355c-.049,1.713-.146,3.461-.318,5.137a3.483,3.483,0,0,1-2.263-.453,2.976,2.976,0,0,1-1.43-3.913,2.933,2.933,0,0,1,4.011-.771" transform="translate(62.643 31.284)" fill="#ff8661"/>
          <path id="Trazado_874876" data-name="Trazado 874876" d="M59.806,32.156c0,1.046-.591,1.9-1.321,1.9s-1.321-.851-1.321-1.9.591-1.894,1.321-1.894,1.321.847,1.321,1.894" transform="translate(54.355 28.775)" fill="#270407"/>
          <path id="Trazado_874877" data-name="Trazado 874877" d="M67.825,32.35c-.152,1.036-.86,1.789-1.582,1.682S65.058,33,65.212,31.965s.86-1.789,1.582-1.684,1.182,1.032,1.03,2.068" transform="translate(61.979 28.784)" fill="#270407"/>
          <path id="Trazado_874878" data-name="Trazado 874878" d="M90.328,38.178a.306.306,0,0,1-.111-.591,17.575,17.575,0,0,0,6.475-4.86.305.305,0,1,1,.478.38,17.853,17.853,0,0,1-6.73,5.049.282.282,0,0,1-.111.021" transform="translate(85.597 31.009)" fill="#22a088"/>
          <path id="Trazado_874879" data-name="Trazado 874879" d="M96.712,34.056a.356.356,0,0,1-.078-.01,60.137,60.137,0,0,0-8.935-1.7.306.306,0,1,1,.031-.611,59.421,59.421,0,0,1,9.06,1.719.306.306,0,0,1-.078.6" transform="translate(83.112 30.176)" fill="#22a088"/>
          <path id="Trazado_874880" data-name="Trazado 874880" d="M97.754,36.943a.31.31,0,0,1-.289-.2L94.619,28.8a.3.3,0,0,1,.185-.39.31.31,0,0,1,.39.185l2.846,7.938a.3.3,0,0,1-.183.392.32.32,0,0,1-.1.018" transform="translate(89.951 26.998)" fill="#22a088"/>
          <path id="Trazado_874881" data-name="Trazado 874881" d="M104.137,38.282a.292.292,0,0,1-.168-.051.3.3,0,0,1-.086-.423l6.139-9.278a.306.306,0,1,1,.509.339l-6.141,9.276a.3.3,0,0,1-.254.137" transform="translate(98.728 26.998)" fill="#22a088"/>
          <path id="Trazado_874882" data-name="Trazado 874882" d="M110.435,38.942a.314.314,0,0,1-.181-.059A50.587,50.587,0,0,0,104,34.662a.288.288,0,0,1-.33-.252.324.324,0,0,1,.275-.353l.037,0c.523,0,2.755,1.459,6.637,4.339a.3.3,0,0,1-.181.55" transform="translate(98.569 32.379)" fill="#22a088"/>
          <path id="Trazado_874883" data-name="Trazado 874883" d="M115.955,40.064a.39.39,0,0,1-.08-.01.306.306,0,0,1-.215-.375L117.7,32.1a.305.305,0,1,1,.589.16l-2.044,7.575a.306.306,0,0,1-.295.226" transform="translate(109.965 30.311)" fill="#22a088"/>
          <path id="Trazado_874884" data-name="Trazado 874884" d="M119.424,35.239a.323.323,0,0,1-.191-.068.306.306,0,0,1-.09-.423.309.309,0,0,1,.308-.133c.525-.242,2.694-2.786,4.542-5.172a.305.305,0,1,1,.482.375c-3.666,4.739-4.666,5.421-5.051,5.421" transform="translate(113.24 27.883)" fill="#22a088"/>
          <path id="Trazado_874885" data-name="Trazado 874885" d="M90.179,33.719a3.457,3.457,0,1,1,3.457,3.457,3.456,3.456,0,0,1-3.457-3.457" transform="translate(85.747 28.775)" fill="#fee9ee"/>
          <path id="Trazado_874886" data-name="Trazado 874886" d="M91.448,33.665c0-.408.441-.739.981-.739s.983.332.983.739-.441.739-.983.739-.981-.332-.981-.739" transform="translate(86.953 31.308)" fill="#fedae4"/>
          <path id="Trazado_874887" data-name="Trazado 874887" d="M93.9,32.3a3.457,3.457,0,1,1,.556,4.858A3.458,3.458,0,0,1,93.9,32.3" transform="translate(88.571 29.473)" fill="#fedae4"/>
          <path id="Trazado_874888" data-name="Trazado 874888" d="M93.8,33.563a1.023,1.023,0,1,1,.31,1.19.887.887,0,0,1-.31-1.19" transform="translate(89.066 31.695)" fill="#fee9ee"/>
          <path id="Trazado_874889" data-name="Trazado 874889" d="M105.487,32.849A3.219,3.219,0,1,1,106,37.373a3.217,3.217,0,0,1-.517-4.524" transform="translate(99.637 30.076)" fill="#fedae4"/>
          <path id="Trazado_874890" data-name="Trazado 874890" d="M105.392,34.021a.954.954,0,1,1,.289,1.11.827.827,0,0,1-.289-1.11" transform="translate(100.099 32.146)" fill="#fee9ee"/>
          <path id="Trazado_874891" data-name="Trazado 874891" d="M103.26,37.658a2.786,2.786,0,1,1,3.892-.613,2.786,2.786,0,0,1-3.892.613" transform="translate(97.095 31.016)" fill="#fee9ee"/>
          <path id="Trazado_874892" data-name="Trazado 874892" d="M104.231,35.647a.823.823,0,1,1,.948-.289.716.716,0,0,1-.948.289" transform="translate(98.915 32.592)" fill="#fedae4"/>
          <path id="Trazado_874893" data-name="Trazado 874893" d="M117.13,37.188a3.221,3.221,0,1,1,4.5-.708,3.219,3.219,0,0,1-4.5.708" transform="translate(110.114 29.822)" fill="#fedae4"/>
          <path id="Trazado_874894" data-name="Trazado 874894" d="M118.253,34.864a.954.954,0,1,1,1.1-.336.827.827,0,0,1-1.1.336" transform="translate(112.217 31.644)" fill="#fedae4"/>
          <path id="Trazado_874895" data-name="Trazado 874895" d="M118.216,34.774a3.074,3.074,0,1,1,4.3-.675,3.075,3.075,0,0,1-4.3.675" transform="translate(111.204 27.778)" fill="#fee9ee"/>
          <path id="Trazado_874896" data-name="Trazado 874896" d="M119.288,32.555a.91.91,0,1,1,1.046-.32.79.79,0,0,1-1.046.32" transform="translate(113.211 29.517)" fill="#fedae4"/>
          <path id="Trazado_874897" data-name="Trazado 874897" d="M119.355,33.138a3.074,3.074,0,1,1,1.728,3.989,3.077,3.077,0,0,1-1.728-3.989" transform="translate(113.284 29.66)" fill="#fee9ee"/>
          <path id="Trazado_874898" data-name="Trazado 874898" d="M119.9,33.836a.909.909,0,1,1,.572.932.788.788,0,0,1-.572-.932" transform="translate(113.974 31.822)" fill="#fedae4"/>
          <path id="Trazado_874899" data-name="Trazado 874899" d="M96.342,111.83c-3.229-.562-5.283-2.483-8.512-6.873-3.8-5.162-9.625-13.16-12.6-24.142a36.621,36.621,0,0,1,6.042-5.492c2.995,13.258,11.116,29.23,15.066,36.506" transform="translate(71.536 71.622)" fill="#ff9570"/>
          <path id="Trazado_874900" data-name="Trazado 874900" d="M69.942,44.649a6.62,6.62,0,0,0-.5.513c-.06.074-.135.148-.2.232a7.3,7.3,0,0,0-1.383,4.489,9.349,9.349,0,0,1-5.062-.525c-4.194-1.481-5.981-6.2-6.079-6.494.332.158,6.886,3.266,13.221,1.785" transform="translate(53.933 40.757)" fill="#ff9570"/>
          <path id="Trazado_874901" data-name="Trazado 874901" d="M45.8,86.472l-1.762,2.3S36.56,75.5,30.04,67.054c.014-.039.037-.06.049-.1,0,0,2.3,1.627,8.133,8.266S45.8,86.472,45.8,86.472" transform="translate(28.564 63.665)" fill="#ff9570"/>
          <path id="Trazado_874902" data-name="Trazado 874902" d="M60.176,149.64c-.856,2.6-2.335,7.082-4.171,12.413A61.526,61.526,0,0,1,23.609,147c.146-1.822.33-3.744.574-5.687,4.893,1.773,17.037,5.638,35.993,8.328" transform="translate(22.449 134.367)" fill="#fedae4"/>
          <path id="Trazado_874903" data-name="Trazado 874903" d="M88.944,146.791c-.429,1.871-1,4.378-1.65,7.265-7.9,1.516-20.864,3.547-32.105,3.131-.148-2.63-.293-6.042-.341-10.336,17.659,1.114,28.518.527,34.1-.061" transform="translate(52.151 139.576)" fill="#fedae4"/>
          <path id="Trazado_874904" data-name="Trazado 874904" d="M71.938,44.235a12.067,12.067,0,0,0-1.553,1.444,14.478,14.478,0,0,1-3.437.39,25.462,25.462,0,0,1-10.981-2.883.464.464,0,0,1-.183-.626.459.459,0,0,1,.622-.181c.1.047,8.562,4.6,15.533,1.857" transform="translate(52.988 40.241)" fill="#ff8661"/>
          <path id="Trazado_874905" data-name="Trazado 874905" d="M55,162.234a.457.457,0,0,1-.363-.737c.115-.152,11.846-15.6,26.372-54.109a.459.459,0,0,1,.858.324c-14.585,38.66-26.387,54.193-26.5,54.345a.456.456,0,0,1-.363.178" transform="translate(51.859 101.827)" fill="#1e30af"/>
          <path id="Trazado_874906" data-name="Trazado 874906" d="M41.932,160.911a.453.453,0,0,1-.406-.248c-.181-.345-4.391-9-3.592-51.733a.489.489,0,0,1,.468-.451.462.462,0,0,1,.451.466c-.794,42.324,3.445,51.214,3.488,51.3a.461.461,0,0,1-.2.616.445.445,0,0,1-.209.051" transform="translate(35.975 103.148)" fill="#1e30af"/>
          <path id="Trazado_874907" data-name="Trazado 874907" d="M56.682,222.447H50.115s-.392-13.832.012-20.338c0,0,.819.207,2.189.453,1.5,8.523,3.082,15.152,4.366,19.885" transform="translate(47.49 192.175)" fill="#09001e"/>
          <path id="Trazado_874908" data-name="Trazado 874908" d="M25.277,202.629V222.76s-2.128.146-5.443.355c.258-5.137.5-11.863.576-19.434a24.416,24.416,0,0,0,4.867-1.052" transform="translate(18.859 192.67)" fill="#09001e"/>
          <path id="Trazado_874909" data-name="Trazado 874909" d="M91.074,77.008c-.258.135-.538.269-.831.4L79.615,51.362c-2.433,2.716-6.286,4.512-13.318,3.375-10.419-1.687-11.875-.427-12.56,2.63-.464,2.115-2.776,11.362-4.635,18.724-.318-.135-.6-.258-.856-.378,1.847-7.327,4.134-16.45,4.6-18.541.931-4.194,3.853-4.916,13.6-3.34,8.207,1.321,11.8-1.565,13.943-5.062.269.135.55.269.831.4a16.459,16.459,0,0,1-.94,1.381Z" transform="translate(45.874 46.372)" fill="#b21db2"/>
          <path id="Trazado_874910" data-name="Trazado 874910" d="M53.785,58.191a.971.971,0,1,1-.892-1.126,1.018,1.018,0,0,1,.892,1.126" transform="translate(49.304 54.258)" fill="#fee9ee"/>
        </g>
      </g>
    </g>
  </g>
</svg>
